<svg xmlns="http://www.w3.org/2000/svg" xmlns:xlink="http://www.w3.org/1999/xlink" viewBox="0 0 2000 2000"><defs><style>.cls-1{fill:url(#New_Gradient_Swatch);}.cls-2{fill:url(#New_Gradient_Swatch-2);}.cls-3{fill:url(#New_Gradient_Swatch-3);}.cls-4{fill:url(#New_Gradient_Swatch-4);}.cls-5{fill:url(#New_Gradient_Swatch-5);}.cls-6{fill:url(#New_Gradient_Swatch-6);}.cls-7{fill:url(#New_Gradient_Swatch-7);}.cls-8{fill:url(#New_Gradient_Swatch-8);}.cls-9{opacity:0.5;}.cls-10{fill:url(#New_Gradient_Swatch-9);}.cls-11{fill:none;stroke:#fff;stroke-linecap:round;stroke-linejoin:round;stroke-width:2px;}.cls-12{fill:#fff;}</style><linearGradient id="New_Gradient_Swatch" x1="412" y1="1000" x2="1588" y2="1000" gradientUnits="userSpaceOnUse"><stop offset="0" stop-color="#2da6f7"/><stop offset="0.5" stop-color="#a910fe"/><stop offset="1" stop-color="#f27e64"/></linearGradient><linearGradient id="New_Gradient_Swatch-2" x1="300.84" y1="1694.95" x2="1642.44" y2="361.41" xlink:href="#New_Gradient_Swatch"/><linearGradient id="New_Gradient_Swatch-3" x1="300.85" y1="1694.96" x2="1642.44" y2="361.42" xlink:href="#New_Gradient_Swatch"/><linearGradient id="New_Gradient_Swatch-4" x1="747.43" y1="2144.25" x2="2089.03" y2="810.71" xlink:href="#New_Gradient_Swatch"/><linearGradient id="New_Gradient_Swatch-5" x1="335.16" y1="1729.48" x2="1676.76" y2="395.94" xlink:href="#New_Gradient_Swatch"/><linearGradient id="New_Gradient_Swatch-6" x1="266.55" y1="1660.45" x2="1608.14" y2="326.91" xlink:href="#New_Gradient_Swatch"/><linearGradient id="New_Gradient_Swatch-7" x1="-145.74" y1="1245.68" x2="1195.86" y2="-87.86" xlink:href="#New_Gradient_Swatch"/><linearGradient id="New_Gradient_Swatch-8" x1="300.84" y1="1694.96" x2="1642.44" y2="361.42" xlink:href="#New_Gradient_Swatch"/><linearGradient id="New_Gradient_Swatch-9" x1="417.58" x2="1582.42" xlink:href="#New_Gradient_Swatch"/></defs><title>Front</title><g id="Layer_8" data-name="Layer 8"><path class="cls-1" d="M1000,1588c-324.2,0-588-263.8-588-588s263.8-588,588-588,588,263.8,588,588S1324.2,1588,1000,1588Zm0-1168.1c-319.9,0-580.1,260.2-580.1,580.1s260.2,580.1,580.1,580.1,580.1-260.2,580.1-580.1S1319.9,419.9,1000,419.9Z"/><path class="cls-2" d="M1000.1,1788.1l-15.6-.3-13-.4h-3.1c-5.1-.2-10.8-.3-16.9-.9l-11.9-.9c-11.3-.8-24.2-1.7-37.5-3.7-3.1-.5-6.2-.8-9.5-1.2-5.9-.7-12.1-1.5-18.2-2.6l-28.3-5.1c-6.1-1.1-12.2-2.5-18.1-3.9l-10.1-2.3-13.8-3.2-10.2-2.8-3.2-1-14.2-4-10.8-3.1-15.1-5.1-7.2-2.4c-12.1-3.8-22.3-7.9-29.7-10.9l-3.2-1.3-10.6-4.1-2,1c-2.4,1.3-5.8,3.1-9.8,5-7,3.6-18,9-29.7,14.3s-23.1,10.4-30.9,13.5l-14.3,5.6a4.2,4.2,0,0,1-3.3-.2l-15.4-8c-6.6-3.4-14.9-8.2-24.5-13.7l-15.8-9.1c-23.4-14.4-69.1-44.1-113.7-82.5-36.5-31.2-72.5-67.4-99-99.5-4.9-5.5-9.4-11.2-13.3-16.2l-3.1-4.1c-4.9-6-9.1-11.4-12.5-15.8s-4.8-6.4-6.4-8.6l-4-5.7a3.5,3.5,0,0,1-.6-2.8s1-6.5,2.6-16.1l.9-5.1c.6-3.1,1.1-6.4,1.8-9.8,1.4-7.7,2.8-14.1,4.2-20,3.3-14.7,6.6-27.5,8.2-33.9s3.1-11.2,3.8-13.6l-8.3-14.2c-1-1.9-2.1-3.8-3.3-5.8-2.1-3.7-4.6-7.9-6.9-12.7l-8.9-17.2-3.5-6.8a801.6,801.6,0,0,1-51.8-136.7,785.9,785.9,0,0,1-25.5-143.8c-.8-9.9-1.5-19-2.1-27,0-3.9-.1-7.4-.2-10.6s-.2-7.4-.2-10.5c-.4-11.6-.5-18.2-.5-18.2l.3-16.2c.1-3.6.3-7.8.4-12.4v-3.1c.2-5.1.3-10.9.9-17,.3-3.7.6-7.7.9-11.9.8-11.3,1.7-24.1,3.7-37.4.5-3,.8-6.2,1.2-9.4.7-6,1.5-12.1,2.6-18.3l5.1-28.3c1.1-6.1,2.5-12.2,3.9-18.1.8-3.3,1.6-6.7,2.3-10.1s2.1-9.2,3.2-13.8,1.7-6.4,2.6-9.5l2.9-10q2.7-9.7,5.4-18.9l1.9-5.8c2-5.8,3.8-11.3,5.6-16.5,3.8-12,7.9-22.2,10.9-29.6l1.3-3.3,4.1-10.6a18.5,18.5,0,0,0-1-2c-1.3-2.4-3.1-5.7-5-9.7-2.9-5.6-8.5-17-14.3-29.8s-10.4-23.1-13.5-30.9l-5.6-14.2a4,4,0,0,1,.2-3.2l8-15.6c3.3-6.6,8-14.7,13.5-24.1l9.3-16.2c14.3-23.2,43.8-68.7,82.5-113.7,31.1-36.4,67.4-72.5,99.5-98.9,5.5-5,11.1-9.4,16.1-13.3l4.2-3.2,13.1-10.3,2.6-2.1c3.5-2.8,6.5-5,8.8-6.5l5.5-4a3.8,3.8,0,0,1,2.9-.6l21.5,3.6,9.5,1.7c5.9,1.1,12.9,2.5,20,4.2,12.2,2.8,24.6,5.8,33.9,8.3,6.3,1.5,11.1,3,13.5,3.7l14.3-8.3,5.8-3.3c3.7-2.1,7.9-4.6,12.7-6.9l17.2-8.9,6.8-3.5c42.5-20.8,92.3-39.7,136.7-51.8a785.7,785.7,0,0,1,143.8-25.5l17.3-1.3,13.5-.8,17.2-.5,18.3-.4,13.5.3,15.1.4h3.6c4.9.1,10.5.2,16.4.8l11.7.9c11.4.8,24.3,1.8,37.7,3.8l9,1.1c6.1.7,12.4,1.5,18.7,2.6l28.3,5.1c6.1,1.1,12.1,2.5,18,3.9l10.2,2.3,6.4,1.5,7.4,1.7,7.8,2.2,5.6,1.6,9.9,2.8,15.1,4.3,13.8,4.6,8.5,2.9c10.7,3.4,19.7,7,27,9.9l5.9,2.3,10.6,4.2,2-1.1c2.4-1.3,5.7-3.1,9.7-5,7.2-3.6,18.2-9,29.8-14.3s22.5-10.2,30.9-13.5l14.2-5.5a4,4,0,0,1,3.2.1l15.6,8c6.8,3.5,15.4,8.5,25.3,14.2l15,8.6c23.2,14.3,68.7,43.8,113.7,82.5,36.6,31.3,72.6,67.6,98.9,99.5,5.2,5.7,9.7,11.5,13.7,16.6l7.5,9.7,7.7,9.7q3.9,4.9,6.3,8.4a19.1,19.1,0,0,0,1.5,2.1l2.7,3.8a3.8,3.8,0,0,1,.6,2.9l-3.3,20.3c-.6,3.4-1.3,7-2,10.8-1.1,6-2.5,12.9-4.2,19.9-2.9,12.6-5.9,25-8.3,33.9-1.5,6.3-3,11.2-3.7,13.6l8.3,14.3c1,1.8,2,3.6,3.2,5.6,2.2,3.7,4.7,8,7,12.8s5.7,10.9,8.8,17.1l3.6,6.9c12.3,25.2,35.3,76.3,51.8,136.7s23.3,116,25.5,143.8c.5,6.2.9,12,1.3,17.4l.8,13.4c.2,6.6.3,12.3.5,17.3h0c.3,11.6.4,18.2.4,18.2s-.1,5.1-.3,13.5c-.1,4.2-.2,9.3-.4,15.1v3.6c-.1,5-.2,10.6-.8,16.5-.3,3.6-.6,7.5-.9,11.6-.8,11.4-1.8,24.3-3.8,37.7-.4,2.9-.7,6-1.1,9-.7,6.1-1.5,12.4-2.6,18.7-1.7,9.3-3.4,18.8-5.1,28.3-1.1,6.2-2.6,12.3-4,18.3-.8,3.3-1.5,6.6-2.2,9.9l-.7,3c-.9,3.6-1.7,7.2-2.5,10.8s-1.5,5.4-2.3,8l-1.5,5.3-7.6,26.8c-2.5,7.3-4.9,14.2-7,20.6-3.6,11.2-7.3,20.6-10.3,28.1l-6.1,15.4,1.1,2c1.3,2.4,3.1,5.8,5,9.7,3.6,7.2,9,18.3,14.3,29.8s10.3,22.8,13.5,30.9l5.5,14.3a4,4,0,0,1-.1,3.2l-8,15.5c-3.5,6.7-8.3,15.1-14,24.8l-8.8,15.5c-14.3,23.3-43.9,68.9-82.5,113.7-31.3,36.5-67.5,72.6-99.5,98.9-5.7,5.2-11.5,9.7-16.6,13.7l-3.7,2.9-14.4,11.3-1.4,1.1c-3.1,2.5-6,4.5-8.2,6.1l-2.2,1.6-3.9,2.7a3.5,3.5,0,0,1-2.8.6l-16.1-2.6-1.9-.3-13-2.4c-5.5-1-12.7-2.4-20-4.2-11.1-2.5-23.5-5.5-33.9-8.2-6.3-1.6-11.2-3.1-13.6-3.8l-14.2,8.3-5.9,3.3c-3.7,2.2-7.9,4.6-12.6,6.9l-17.5,9-6.5,3.4c-25.2,12.3-76.3,35.3-136.7,51.8a785.9,785.9,0,0,1-143.8,25.5l-27,2.1-12.7.3-8.4.2Zm-300.5-67.5a3.2,3.2,0,0,1,1.4.3l12.4,4.8,3.2,1.2c7.3,3,17.4,7,29.2,10.8l7.3,2.5,14.9,5,10.7,3,14.2,4,3.2,1,9.9,2.7,13.6,3.1,10.2,2.4c5.8,1.4,11.8,2.8,17.7,3.9l28.3,5c5.9,1.1,12,1.8,17.8,2.5l9.7,1.3c13,1.9,25.7,2.8,36.9,3.6l12,1c5.8.5,11.4.7,16.4.8h3.1c4.8,0,9.2.2,13,.3l15.4.4,18-.5,8.4-.2,12.5-.3,26.8-2a779.6,779.6,0,0,0,142.3-25.3c59.8-16.3,110.4-39.1,135.2-51.3l6.5-3.3,17.6-9c4.5-2.3,8.6-4.6,12.1-6.7l6-3.4,15.7-9.1a3.7,3.7,0,0,1,3.1-.3c.1,0,6.1,1.9,14.9,4.1,10.3,2.8,22.6,5.7,33.7,8.3,7.2,1.7,14.3,3.1,19.6,4.1l13,2.3,1.8.3,14.4,2.4,2.5-1.7,2.2-1.6c2.2-1.6,4.9-3.5,7.9-5.9l1.4-1.1,14.4-11.3,3.7-3c5.1-3.9,10.7-8.3,16.3-13.3,31.8-26.2,67.7-61.9,98.7-98.2,38.2-44.3,67.6-89.6,81.7-112.6l8.8-15.3c5.6-9.6,10.4-18,13.8-24.5l7.1-13.9-4.9-12.6c-3.1-8-7.9-19.1-13.3-30.5s-10.6-22.4-14.1-29.6l-4.9-9.5-2-3.5a3.7,3.7,0,0,1-.2-3.4l6.8-17.1c2.9-7.4,6.5-16.6,10.1-27.7l7-20.7.5-1.4,7-24.9c.5-1.7,1-3.5,1.6-5.3l2.1-7.9c.8-3.4,1.7-7,2.5-10.6l.7-2.9c.7-3.3,1.5-6.7,2.2-10,1.4-5.9,2.9-11.9,3.9-17.9,1.7-9.5,3.4-19,5.1-28.3,1.1-6.1,1.8-12.2,2.6-18.2.3-3.1.7-6.2,1.1-9.3,2-13.1,2.9-25.8,3.8-37.1.2-4.1.5-8,.9-11.8.5-5.6.6-11,.7-15.8v-3.7c.2-5.8.3-10.9.4-15.1.2-8.3.4-13.1.4-13.3s-.2-6.6-.5-18h0c-.2-4.9-.3-10.7-.5-17.3V961l-.7-9.4c-.3-5.5-.8-11.3-1.2-17.4-2.3-27.5-8.6-82.6-25.3-142.3s-39.1-110.4-51.3-135.2l-3.5-6.9-8.8-17.2c-2.3-4.6-4.7-8.7-6.8-12.3l-3.3-5.8-9.1-15.7a3.7,3.7,0,0,1-.3-3.1c0-.1,1.9-6.1,4.1-14.9s5.4-21.1,8.3-33.7c1.6-6.8,3-13.7,4.1-19.5.7-3.8,1.3-7.4,1.9-10.8l3.1-18.6-1.7-2.4-1.6-2.1a82.6,82.6,0,0,0-6-8l-7.7-9.9-7.6-9.6c-3.9-5.1-8.3-10.7-13.3-16.3-26.2-31.8-61.9-67.7-98.1-98.7-44.6-38.4-89.7-67.6-112.7-81.7-5.2-2.9-10.2-5.9-14.9-8.6-9.8-5.7-18.2-10.6-24.9-14l-14-7.1c-2.3.8-6.7,2.6-12.5,4.9-8.2,3.2-19.4,8-30.5,13.3s-22.4,10.6-29.6,14.2l-9.4,4.8a31.5,31.5,0,0,0-3.5,2,3.9,3.9,0,0,1-3.5.2l-12.3-4.9c-1.8-.6-3.8-1.4-5.9-2.3-7.2-2.8-16.1-6.4-26.6-9.7l-8.5-2.9-13.6-4.6-15-4.2-9.9-2.8-5.6-1.6c-2.5-.7-5-1.5-7.6-2.1l-7.2-1.7-6.4-1.5-10.3-2.3c-5.7-1.4-11.6-2.8-17.5-3.9l-28.3-5c-6.1-1.1-12.3-1.9-18.3-2.6l-9.2-1.1c-13.1-2-25.8-2.9-37.1-3.8-4.1-.2-8-.5-11.8-.9-5.7-.5-10.9-.6-15.9-.7h-3.6l-15.1-.4-13.4-.4-17.9.5-17.3.5H961l-9.5.7-17.3,1.2c-27.5,2.3-82.5,8.5-142.3,25.3-44,12-93.2,30.7-135.2,51.3l-6.8,3.5-17.3,8.8c-4.6,2.3-8.6,4.6-12.2,6.7l-5.9,3.4-15.7,9.1a4,4,0,0,1-3.2.3c-.1,0-6-1.9-14.8-4.1s-21.5-5.5-33.7-8.3c-7-1.6-13.8-3-19.6-4.1l-9.5-1.7-19.7-3.3-4.3,3c-2.2,1.6-5.1,3.6-8.3,6.3l-2.8,2.1-13.1,10.3-4.1,3.2c-4.9,3.8-10.4,8.1-15.9,13-31.9,26.4-67.8,62.1-98.6,98.2-38.3,44.5-67.6,89.6-81.7,112.6l-9.3,16c-5.4,9.4-10,17.4-13.3,23.8l-7.2,14,5,12.5c3,7.7,7.7,18.5,13.2,30.5s11.4,24,14.2,29.6c1.9,3.8,3.7,7.1,4.9,9.4l2,3.8a3.6,3.6,0,0,1,.1,3.2l-4.8,12.3-1.3,3.3c-2.9,7.3-7,17.3-10.7,29.1-1.8,5.3-3.6,10.8-5.6,16.6l-1.9,5.6c-1.7,5.9-3.5,12.3-5.3,18.8l-2.9,10c-.9,3.1-1.7,6.1-2.5,9.2s-2.1,9.1-3.2,13.6-1.5,6.8-2.3,10.3c-1.4,5.7-2.8,11.7-3.9,17.6l-5,28.3c-1.1,6-1.9,12-2.6,17.8-.3,3.3-.7,6.5-1.2,9.7-1.9,13-2.8,25.6-3.6,36.8-.3,4.2-.6,8.2-1,12.1-.5,5.8-.7,11.4-.8,16.3v3.2c0,4.6-.2,8.8-.3,12.5l-.4,15.9h0s.2,6.6.5,18q.2,4.8.3,10.5c.1,3.2.2,6.7.2,10.4.6,7.8,1.3,16.9,2,26.8A779.6,779.6,0,0,0,248,1208.1a789.5,789.5,0,0,0,51.3,135.2l3.5,6.8c3.1,6.2,6.1,12,8.8,17.3s4.6,8.6,6.7,12.2,2.4,4.1,3.4,5.9l9.1,15.7a3.7,3.7,0,0,1,.3,3.1c0,.1-1.9,6.1-4.1,14.9-1.7,6.3-5,19.1-8.3,33.7-1.3,5.8-2.6,12.1-4.1,19.6-.6,3.4-1.2,6.7-1.7,9.7l-.9,5.2c-1.1,6.7-2,11.9-2.4,14.3l3.1,4.4c1.6,2.2,3.5,5,6.1,8.2s7.6,9.8,12.4,15.8l3.2,4.1c3.9,4.9,8.2,10.5,13.1,15.9,26.3,31.9,62,67.8,98.1,98.7,44.2,38,89.5,67.5,112.6,81.7l15.8,9.1c9.4,5.5,17.6,10.2,24.1,13.5l13.9,7.2,12.6-5c7.7-3,18.5-7.7,30.5-13.2s22.5-10.7,29.5-14.3c4-1.9,7.2-3.6,9.6-4.8l3.5-1.9A3.2,3.2,0,0,1,699.6,1720.6Z"/><path class="cls-3" d="M997.4,1724c-20.9,0-41-.8-58.7-2.6-5.9-.3-11.6-1-16.6-1.6l-5.3-.6-4.2-.5-12.4-1.5c-3.6-.4-6.5-.9-8.9-1.3l-2.1-.3-3.7-.7a3.5,3.5,0,0,1-2.6-1.6l-8-11.1c-1.6-2.2-3.2-4.6-5-7.2-247.4-46-452.8-221.9-536.7-459.5-2.8-1.1-5.4-2.2-7.6-3.3l-11.7-5a3.7,3.7,0,0,1-2.2-2.4s-1.7-5.1-4.6-14.1c-1.8-5.8-3.9-13.4-6.2-22.2-1.2-4.7-2.6-9.8-4.1-15.2-5.4-22.5-14.9-67.4-18.5-116.7-3.2-40.5-3.1-83.5.3-117.9.3-6.4,1.1-12.5,1.7-17.9l1.1-9c.5-4.3,1-8.2,1.4-11.6s.9-6.5,1.3-8.9l.3-2.1c.5-2.4.7-3.7.7-3.7a3.5,3.5,0,0,1,1.6-2.6c0-.1,4.4-3.2,11-8l4.2-2.9,3.1-2.2c46-247.3,221.9-452.7,459.5-536.6,1.1-2.8,2.2-5.4,3.3-7.6l5-11.7a3.7,3.7,0,0,1,2.4-2.2l14-4.6c5.8-1.8,13.3-3.8,22-6.1l15.5-4.2c22.4-5.3,67.1-14.8,116.7-18.5,40.5-3.2,83.5-3.1,117.9.3,6.2.3,12.2,1,17.4,1.7l4.4.5,14.2,1.7,2.6.3c3.5.4,6.4.9,8.8,1.3l2.1.3,3.7.7a3.5,3.5,0,0,1,2.6,1.6c.1,0,3.2,4.4,8,11.1l.2.3,4.8,6.9c247.4,46,452.8,221.9,536.7,459.6l7.6,3.1,11.8,5.2a4,4,0,0,1,2.2,2.4s1.5,5.1,4.4,13.9c2,6.1,4.1,14,6.5,23.1l3.9,14.4c5.3,22.3,14.8,66.9,18.5,116.7,3.2,40.5,3.1,83.5-.3,117.8-.3,6.3-1,12.3-1.7,17.5l-1.5,12.4c-.4,3.2-.7,6.1-1,8.7s-.9,6.5-1.3,8.9l-.3,2.1c-.5,2.5-.7,3.7-.7,3.7a3.5,3.5,0,0,1-1.6,2.6c0,.1-4.4,3.2-11.1,8l-7.2,5c-46,247.4-221.9,452.8-459.6,536.7-1.1,2.7-2.1,5.3-3.1,7.6l-5.2,11.8a3.6,3.6,0,0,1-2.4,2.1l-14,4.6c-5.7,1.8-13.1,3.8-21.6,6l-15.8,4.3c-22.4,5.3-67.1,14.8-116.7,18.5C1037,1723.3,1016.9,1724,997.4,1724Zm-109.1-16.6,2.2.4,2.2.3c2.2.4,5,.9,8.3,1.2l12.6,1.6,4.2.5,5.2.6c5.2.6,10.5,1.2,16.3,1.6,34.1,3.3,76.6,3.4,116.7.3,49-3.7,93.3-13.1,115.3-18.3,5.5-1.6,10.9-3,15.8-4.3,8.4-2.2,15.7-4.2,21.2-6l12.3-3.9,4.4-10.2c1.2-2.6,2.5-5.7,3.8-9a3.7,3.7,0,0,1,2.3-2.3c236.4-82.7,411.3-286.9,456.4-532.8a3.9,3.9,0,0,1,1.7-2.6l8.4-5.8,9.8-7c.1-.6.2-1.3.4-2.2l.3-2.2c.4-2.2.9-5,1.2-8.3s.7-5.6,1.1-8.8l1.5-12.5c.6-5.4,1.3-10.9,1.7-17h0c3.3-34,3.4-76.5.3-116.6-3.7-49.2-13.1-93.4-18.4-115.3-1.4-5-2.6-9.9-3.8-14.4-2.4-9-4.5-16.8-6.4-22.7s-3.2-10-3.9-12.2l-10.2-4.4c-2.6-1.2-5.7-2.5-9-3.8a3.7,3.7,0,0,1-2.3-2.3c-82.7-236.4-286.9-411.3-532.8-456.4a3.9,3.9,0,0,1-2.6-1.7l-5.6-8.1-7.2-10.1-2.2-.4-2.2-.3c-2.2-.4-5-.9-8.3-1.3l-2.7-.3-14.1-1.6-4.5-.6c-5.1-.6-10.9-1.3-17-1.7-34.1-3.3-76.6-3.4-116.7-.3-49,3.7-93.3,13.1-115.3,18.3l-15.5,4.2c-8.5,2.3-15.9,4.2-21.6,6.1l-12.2,3.9L775,328.8c-1.3,2.7-2.5,5.7-3.8,9a4.2,4.2,0,0,1-2.4,2.3C532.5,422.9,357.6,627,312.5,872.9a4.2,4.2,0,0,1-1.6,2.5l-4.5,3.1-4.1,2.8c-4.4,3.3-7.9,5.7-9.7,7-.1.6-.2,1.4-.4,2.2l-.3,2.2c-.4,2.2-.9,5-1.3,8.3s-.8,7.4-1.4,11.8l-1.1,9c-.6,5.2-1.3,11.2-1.7,17.5-3.3,34.1-3.4,76.6-.3,116.7,3.6,48.8,13.1,93.2,18.3,115.3,1.5,5.3,2.9,10.5,4.1,15.2,2.3,8.7,4.3,16.1,6.2,21.8s3.2,10.1,3.9,12.3l10.2,4.4c2.7,1.3,5.7,2.5,9,3.9a3.7,3.7,0,0,1,2.3,2.3c82.8,236.3,286.9,411.2,532.8,456.3a3.9,3.9,0,0,1,2.6,1.7c2.1,3.1,4,5.9,5.8,8.4ZM1711,1113.9h0Z"/><path class="cls-4" d="M1693.6,1124.5a3.9,3.9,0,0,0-4.4,0l-.7.5-1.3.9c-4,2.8-8.8,6-14,9.2-7.2,4.5-15.4,9.5-24.9,15.1-6.5,3.9-11.2,6.4-11.2,6.4a4,4,0,0,0-2,2.4s-1.5,5.4-4,14.7q-.6,2.1-1.2,4.5c-.9,3.7-2,7.8-3.5,12.2l-7,21.7a651.4,651.4,0,0,1-119.2,210l-6.7,7.7-8,9.4-6.1,6.3-6.1,6.4c-6.5,7-10.3,10.9-10.3,10.9l-8.1,7.7-9.2,8.8-1.9,1.8c-3,2.9-6.4,6.1-10.2,9.2l-8.1,7c-7,6-15,12.9-23.7,19.3l-5.6,4.4c-4.1,3.2-8.4,6.6-12.9,9.7l-13.8,9.6-6,4.2c-4,2.8-8.3,5.5-12.4,8l-7.7,4.9-9.3,5.7-.8.5-7.5,4.3-2.4,1.3-18.9,10.5-8.4,4.2-9.2,4.6c-9.2,4.7-17.5,8.3-23.6,10.9l-2.8,1.2-10.2,4.4a4,4,0,0,0-2.2,2.4l-1.1,3.5c-.5,2-1.4,4.9-2.6,8.4-1.7,5-5.1,15.1-9.1,26-2.2,5.8-4.4,11.6-6.5,16.9a3.9,3.9,0,0,0,.8,4.2,3.8,3.8,0,0,0,2.8,1.2l1.3-.2c239.1-83.7,415.9-290.2,461.6-538.9A3.9,3.9,0,0,0,1693.6,1124.5Z"/><path class="cls-5" d="M875,1688.5l-.9-1.3c-2.9-4.1-6-8.8-9.2-14-5.3-8.4-10.8-17.5-15.1-24.9s-6.4-11.2-6.4-11.2a3.9,3.9,0,0,0-2.5-2l-14.6-4-4.7-1.2c-3.6-1-7.7-2-12.1-3.5l-21.6-7c-21.9-7.5-65.4-23.9-110.6-49.8a659.2,659.2,0,0,1-99.4-69.4l-5.6-4.8-11.5-9.9-3-2.9-9.7-9.2L537.2,1463l-7.7-8.1-9.8-10.2c-3.1-3.3-6.6-6.9-10-11.1l-5.8-6.8c-6.5-7.3-13.7-15.7-20.5-25l-4.7-6c-3.2-4-6.4-8.1-9.4-12.4l-6.2-8.9-7.6-11c-2.8-4-5.5-8.3-8-12.4s-3.3-5.3-4.9-7.7l-6-9.7-.2-.2c-1-1.9-2.1-3.7-3-5.5l-2.6-4.5-10.6-19-8.7-17.6c-4.5-8.9-7.9-16.6-10.6-22.8l-5.9-13.8a4,4,0,0,0-2.4-2.2l-3.4-1c-2.2-.6-5.1-1.5-8.5-2.7-5-1.7-15.1-5.1-26-9.1l-16.9-6.4a3.9,3.9,0,0,0-4.2.8,3.9,3.9,0,0,0-1,4.1c83.7,239,290.2,415.8,538.9,461.5h.7a4,4,0,0,0,3.3-1.8,3.9,3.9,0,0,0,0-4.4Z"/><path class="cls-6" d="M1422.1,499.8l.6.6,16.5,14.1,8.5,8.1,4.2,4.1,10.9,10.3,7.7,8,4.8,5.2,5.6,5.8c3,3.2,6.2,6.5,9.4,10.4l7,8.1c6.1,7,12.9,15,19.3,23.7l5.1,6.5c3,3.8,6.1,7.8,9,12l13.8,19.8c3,4.3,5.8,8.8,8.5,13.2l4.3,7,6.3,9.8,3.2,5.8,2.4,4.2,4.1,7.5,6.4,11.5,5.4,10.8,3.3,6.8c4.5,8.7,7.9,16.4,10.5,22.6l1.7,3.8,4.4,10.2a4,4,0,0,0,2.4,2.2l3.5,1.1c2.1.5,5,1.5,8.4,2.6s14.6,4.9,26,9.1l16.9,6.5,1.4.3a4.3,4.3,0,0,0,2.8-1.1,3.9,3.9,0,0,0,1-4.1c-83.7-239.1-290.2-415.9-538.9-461.6a3.9,3.9,0,0,0-4,1.7,3.9,3.9,0,0,0,0,4.4l.6.8.8,1.1c2.8,4.1,6,9,9.2,14.1,5.9,9.3,11.4,18.7,15.1,24.9s6.3,11.2,6.3,11.2a3.9,3.9,0,0,0,2.5,2l14.7,4,4.7,1.2c3.6,1,7.7,2,12,3.5l21.7,7c37.1,12.7,77.4,30.8,110.5,49.8A655.7,655.7,0,0,1,1422.1,499.8Z"/><path class="cls-7" d="M362.9,843.5a3.9,3.9,0,0,0,2-2.5s1.4-5.4,4-14.7l1.2-4.7c1-3.6,2-7.7,3.5-12l1.4-4.4,5.6-17.3c7.5-21.8,23.9-65.3,49.8-110.5a650.7,650.7,0,0,1,69.4-99.5l7.9-9.2c2.5-2.8,4.8-5.5,6.8-7.9l12.1-12.7c6.6-6.9,10.4-10.9,10.4-11l8.1-7.6c2.6-2.5,5.6-5.4,9.3-8.8l1.1-1.1c3.2-3.1,6.7-6.5,10.9-9.9l7.4-6.4c7.2-6.2,15.3-13.3,24.4-19.9l6.7-5.3c3.8-2.9,7.7-6,11.7-8.8l19.9-13.8c4.2-2.9,8.7-5.7,13-8.4l7.2-4.4,9.8-6.3,6.4-3.5,10.7-6c4.1-2.3,8.1-4.6,11.9-6.6l17.6-8.7c8.6-4.5,16.3-7.8,22.5-10.5l14.1-6.1a4,4,0,0,0,2.2-2.4l1-3.4c.6-2.2,1.5-5,2.7-8.5s5.1-15,9.1-26l6.4-16.9a3.9,3.9,0,0,0-.8-4.2,3.9,3.9,0,0,0-4.1-1c-239,83.7-415.8,290.2-461.5,538.8a4.1,4.1,0,0,0,1.7,4.1,4.3,4.3,0,0,0,2.2.6,3.6,3.6,0,0,0,2.2-.7l2.9-2c4.2-2.8,8.5-5.7,13.1-8.5,10.9-6.9,20.3-12.4,24.9-15.1C358.2,845.9,362.8,843.5,362.9,843.5Z"/><path class="cls-8" d="M997.4,1724c-20.9,0-41-.8-58.7-2.6-5.9-.3-11.6-1-16.6-1.6l-5.3-.6-4.2-.5-12.4-1.5c-3.6-.4-6.5-.9-8.9-1.3l-2.1-.3-3.7-.7a3.5,3.5,0,0,1-2.6-1.6l-8-11.1-5.9-8.6-.5-.6-.9-1.4c-2.9-4-6.1-8.9-9.4-14.2-5.3-8.5-10.9-17.7-15.2-25.1-2.7-4.5-4.7-8.1-5.8-10l-13.1-3.6-4.4-1.2c-3.8-1-8.1-2-12.7-3.6l-21.5-7a658.2,658.2,0,0,1-212.8-120.7l-5.5-4.8-11.7-10.1-3.2-3-9.6-9.2-11.1-10.6-7.8-8.1-9.8-10.3c-3.2-3.3-6.8-7.1-10.4-11.4l-5.7-6.7c-6.5-7.5-13.9-16-20.9-25.5l-4.5-5.8c-3.2-4.1-6.6-8.3-9.7-12.8l-6.2-9-7.5-10.9c-3-4.2-5.7-8.5-8.3-12.8l-4.8-7.6-6.1-9.7-.2-.4-3.3-5.7c-.8-1.5-1.6-3-2.5-4.5l-10.6-19.1-8.8-17.8c-4.7-9-8.1-16.9-10.8-23.2l-5.2-12.1-1.5-.4-8.8-2.8c-5.1-1.7-15.2-5.2-26.2-9.2-6.8-2.5-12.4-4.6-17.1-6.5s-6.6-2.7-9.3-4l-11.7-5a3.7,3.7,0,0,1-2.2-2.4s-1.7-5.1-4.6-14.1c-1.8-5.8-3.9-13.4-6.2-22.2-1.2-4.7-2.6-9.8-4.1-15.2-5.4-22.5-14.9-67.4-18.5-116.7-3.2-40.5-3.1-83.5.3-117.9.3-6.4,1.1-12.5,1.7-17.9l1.1-9c.5-4.3,1-8.2,1.4-11.6s.9-6.5,1.3-8.9l.3-2.1c.5-2.4.7-3.7.7-3.7a3.5,3.5,0,0,1,1.6-2.6c0-.1,4.4-3.2,11-8l4.2-2.9,7.5-5.2,13.2-8.6c11-6.9,20.4-12.5,25.1-15.2s8.1-4.6,10-5.7,1.8-6.8,3.6-13.2q.6-2.1,1.2-4.5c1-3.7,2.1-8,3.6-12.5l1.4-4.3,5.6-17.3A659.1,659.1,0,0,1,493.8,572.8l8-9.2,6.9-8.1,12.2-12.9,10.5-11,8.3-7.8c2.5-2.5,5.6-5.5,9.2-8.8l1.1-1.1c3.3-3.2,7-6.7,11.4-10.3l7.2-6.2c7.3-6.4,15.6-13.6,24.9-20.4l6.5-5.1c3.9-3,7.9-6.1,12.1-9l19.8-13.8c4.4-3.1,9.1-6,13.5-8.7l7-4.4,10.1-6.3,6.6-3.8,10.7-5.9c4.1-2.3,8.1-4.6,12.1-6.7l17.7-8.8c8.7-4.6,16.6-7.9,22.8-10.6l12.5-5.4c.1-.4.2-.9.4-1.5.7-2.2,1.6-5.2,2.8-8.8s5.1-15.2,9.2-26.2c2.5-6.8,4.6-12.4,6.5-17.1s2.7-6.6,4-9.3l5-11.7a3.7,3.7,0,0,1,2.4-2.2l14-4.6c5.8-1.8,13.3-3.8,22-6.1l15.5-4.2c22.4-5.3,67.1-14.8,116.7-18.5,40.5-3.2,83.5-3.1,117.9.3,6.2.3,12.2,1,17.4,1.7l4.4.5,14.2,1.7,2.6.3c3.5.4,6.4.9,8.8,1.3l2.1.3,3.7.7a3.5,3.5,0,0,1,2.6,1.6c.1,0,3.2,4.4,8,11.1l.2.3c1.8,2.5,3.7,5.3,5.7,8.3l.5.6.9,1.4c2.8,4.1,6.2,9,9.4,14.2,5.9,9.4,11.5,18.8,15.2,25.1,2.7,4.5,4.7,8.1,5.7,10.1l13.1,3.5,4.6,1.2c3.7,1,7.9,2.1,12.5,3.6l21.7,7c37.6,12.9,78.4,31.2,111.9,50.4a666.9,666.9,0,0,1,100.7,70.3l.7.6,16.6,14.3,8.6,8.2,4.3,4.1,11,10.4,7.8,8.2,4.8,5.1,5.5,5.8c3.1,3.2,6.5,6.7,9.9,10.8s4.5,5.3,6.9,8.1c6.1,7.1,13.1,15.1,19.7,24.1,1.5,2.1,3.2,4.2,4.9,6.3,3.1,4,6.3,8,9.3,12.4l13.7,19.8c3.2,4.4,6,9,8.8,13.5,1.4,2.3,2.8,4.7,4.3,6.9l6.3,10c1.3,2.2,2.3,4.1,3.4,6.1l2.3,4.2,4.2,7.5,6.5,11.7c2,3.8,3.7,7.5,5.5,11l3.3,6.7c4.6,8.9,8,16.7,10.7,23l1.6,3.8,3.7,8.5,1.6.5c2.1.5,5.1,1.5,8.7,2.7s14.7,5,26.2,9.2l17.1,6.6,9.3,3.8,11.8,5.2a4,4,0,0,1,2.2,2.4s1.5,5.1,4.4,13.9c2,6.1,4.1,14,6.5,23.1l3.9,14.4c5.3,22.3,14.8,66.9,18.5,116.7,3.2,40.5,3.1,83.5-.3,117.8-.3,6.3-1,12.3-1.7,17.5l-1.5,12.4c-.4,3.2-.7,6.1-1,8.7s-.9,6.5-1.3,8.9l-.3,2.1c-.5,2.5-.7,3.7-.7,3.7a3.5,3.5,0,0,1-1.6,2.6c0,.1-4.4,3.2-11.1,8l-8.6,5.9-.6.5-1.4.9c-4,2.9-8.8,6.1-14.2,9.4-7.3,4.6-15.5,9.5-25.1,15.2-4.5,2.7-8.1,4.7-10.1,5.8l-3.5,13-1.2,4.4c-.9,3.8-2.1,8.1-3.6,12.7l-7,21.7a681.2,681.2,0,0,1-50.4,112,666.7,666.7,0,0,1-70.3,100.6l-6.7,7.7-8.2,9.6-6.2,6.5-6.1,6.3c-6.6,7.1-10.5,11.1-10.5,11.1s-3,3-8.2,7.8l-9.2,8.9-1.9,1.7c-3.1,3-6.6,6.3-10.5,9.6s-5.3,4.5-8.1,6.9c-7.1,6.1-15.1,13.1-24.1,19.7l-5.4,4.2c-4.2,3.3-8.6,6.8-13.3,10l-13.8,9.6-6,4.1c-4.2,3-8.5,5.7-12.8,8.3l-7.6,4.8-9.3,5.8-.9.5c-2.6,1.6-5.2,3.1-7.9,4.5l-2.3,1.3-19.1,10.6-8.6,4.3-9,4.5c-9.5,4.8-17.9,8.5-24.1,11.1l-2.8,1.2-8.5,3.7a14.2,14.2,0,0,1-.5,1.6c-.5,2.1-1.5,5.1-2.7,8.7-1.7,5.1-5.2,15.2-9.2,26.2-2.2,5.9-4.5,11.8-6.6,17.1-1.3,3.4-2.6,6.6-3.8,9.3l-5.2,11.8a3.6,3.6,0,0,1-2.4,2.1l-14,4.6c-5.7,1.8-13.1,3.8-21.6,6l-15.8,4.3c-22.4,5.3-67.1,14.8-116.7,18.5C1037,1723.3,1016.9,1724,997.4,1724Zm-109.1-16.6,2.2.4,2.2.3c2.2.4,5,.9,8.3,1.2l12.6,1.6,4.2.5,5.2.6c5.2.6,10.5,1.2,16.3,1.6,34.1,3.3,76.6,3.4,116.7.3,49-3.7,93.3-13.1,115.3-18.3,5.5-1.6,10.9-3,15.8-4.3,8.4-2.2,15.7-4.2,21.2-6l12.3-3.9,4.4-10.2c1.2-2.6,2.5-5.7,3.8-9,2.1-5.3,4.3-11.1,6.5-16.9,4-10.9,7.4-21,9.1-26,1.2-3.5,2.1-6.4,2.6-8.4l1.1-3.5a4,4,0,0,1,2.2-2.4l10.2-4.4,2.8-1.2c6.1-2.6,14.4-6.2,23.6-10.9l9.2-4.6,8.4-4.2,18.9-10.5,2.4-1.3,7.5-4.3.8-.5,9.3-5.7,7.7-4.9c4.1-2.5,8.4-5.2,12.4-8l6-4.2,13.8-9.6c4.5-3.1,8.8-6.5,12.9-9.7l5.6-4.4c8.7-6.4,16.7-13.3,23.7-19.3l8.1-7c3.8-3.1,7.2-6.3,10.2-9.2l1.9-1.8,9.2-8.8,8.1-7.7h0s3.8-3.9,10.3-10.9l6.1-6.4,6.1-6.3,8-9.4,6.7-7.7a651.4,651.4,0,0,0,119.2-210l7-21.7c1.5-4.4,2.6-8.5,3.5-12.2q.6-2.4,1.2-4.5c2.5-9.3,4-14.7,4-14.7a4,4,0,0,1,2-2.4s4.7-2.5,11.2-6.4c9.5-5.6,17.7-10.6,24.9-15.1,5.2-3.2,10-6.4,14-9.2l1.3-.9.7-.5,8.4-5.8,9.8-7c.1-.6.2-1.3.4-2.2l.3-2.2c.4-2.2.9-5,1.2-8.3s.7-5.6,1.1-8.8l1.5-12.5c.6-5.4,1.3-10.9,1.7-17h0c3.3-34,3.4-76.5.3-116.6-3.7-49.2-13.1-93.4-18.4-115.3-1.4-5-2.6-9.9-3.8-14.4-2.4-9-4.5-16.8-6.4-22.7s-3.2-10-3.9-12.2l-10.2-4.4c-2.6-1.2-5.7-2.5-9-3.8l-16.9-6.5c-11.4-4.2-21.2-7.5-26-9.1s-6.3-2.1-8.4-2.6l-3.5-1.1a4,4,0,0,1-2.4-2.2l-4.4-10.2-1.7-3.8c-2.6-6.2-6-13.9-10.5-22.6l-3.3-6.8-5.4-10.8-6.4-11.5-4.1-7.5-2.4-4.2-3.2-5.8-6.3-9.8-4.3-7c-2.7-4.4-5.5-8.9-8.5-13.2l-13.8-19.8c-2.9-4.2-6-8.2-9-12l-5.1-6.5c-6.4-8.7-13.2-16.7-19.3-23.7l-7-8.1c-3.2-3.9-6.4-7.2-9.4-10.4l-5.6-5.8-4.8-5.2-7.7-8-10.9-10.3-4.2-4.1-8.5-8.1-16.5-14.1-.6-.6a655.7,655.7,0,0,0-99.5-69.4c-33.1-19-73.4-37.1-110.5-49.8l-21.7-7c-4.3-1.5-8.4-2.5-12-3.5l-4.7-1.2-14.7-4a3.9,3.9,0,0,1-2.5-2s-2.4-4.7-6.3-11.2-9.2-15.6-15.1-24.9c-3.2-5.1-6.4-10-9.2-14.1l-.8-1.1-.6-.8-5.6-8.1-7.2-10.1-2.2-.4-2.2-.3c-2.2-.4-5-.9-8.3-1.3l-2.7-.3-14.1-1.6-4.5-.6c-5.1-.6-10.9-1.3-17-1.7-34.1-3.3-76.6-3.4-116.7-.3-49,3.7-93.3,13.1-115.3,18.3l-15.5,4.2c-8.5,2.3-15.9,4.2-21.6,6.1l-12.2,3.9L775,328.8c-1.3,2.7-2.5,5.7-3.8,9s-4,10.2-6.5,16.9c-4,11-7.4,21-9.1,26s-2.1,6.3-2.7,8.5l-1,3.4a4,4,0,0,1-2.2,2.4l-14.1,6.1c-6.2,2.7-13.9,6-22.5,10.5l-17.6,8.7c-3.8,2-7.8,4.3-11.9,6.6l-10.7,6-6.4,3.5-9.8,6.3-7.2,4.4c-4.3,2.7-8.8,5.5-13,8.4l-19.9,13.8c-4,2.8-7.9,5.9-11.7,8.8l-6.7,5.3c-9.1,6.6-17.2,13.7-24.4,19.9l-7.4,6.4c-4.2,3.4-7.7,6.8-10.9,9.9l-1.1,1.1c-3.7,3.4-6.7,6.3-9.3,8.8l-8.1,7.6c0,.1-3.8,4.1-10.4,11l-12.1,12.7c-2,2.4-4.3,5.1-6.8,7.9l-7.9,9.2a650.7,650.7,0,0,0-69.4,99.5c-25.9,45.2-42.3,88.7-49.8,110.5L375,805.2l-1.4,4.4c-1.5,4.3-2.5,8.4-3.5,12l-1.2,4.7c-2.6,9.3-4,14.7-4,14.7a3.9,3.9,0,0,1-2,2.5c-.1,0-4.7,2.4-11.2,6.3-4.6,2.7-14,8.2-24.9,15.1-4.6,2.8-8.9,5.7-13.1,8.5l-7.3,5.1-4.1,2.8c-4.4,3.3-7.9,5.7-9.7,7-.1.6-.2,1.4-.4,2.2l-.3,2.2c-.4,2.2-.9,5-1.3,8.3s-.8,7.4-1.4,11.8l-1.1,9c-.6,5.2-1.3,11.2-1.7,17.5-3.3,34.1-3.4,76.6-.3,116.7,3.6,48.8,13.1,93.2,18.3,115.3,1.5,5.3,2.9,10.5,4.1,15.2,2.3,8.7,4.3,16.1,6.2,21.8s3.2,10.1,3.9,12.3l10.2,4.4c2.7,1.3,5.7,2.5,9,3.9l16.9,6.4c10.9,4,21,7.4,26,9.1,3.4,1.2,6.3,2.1,8.5,2.7l3.4,1a4,4,0,0,1,2.4,2.2l5.9,13.8c2.7,6.2,6.1,13.9,10.6,22.8l8.7,17.6,10.6,19,2.6,4.5c.9,1.8,2,3.6,3,5.5l.2.2,6,9.7c1.6,2.4,3.2,5,4.9,7.7s5.2,8.4,8,12.4l7.6,11,6.2,8.9c3,4.3,6.2,8.4,9.4,12.4l4.7,6c6.8,9.3,14,17.7,20.5,25l5.8,6.8c3.4,4.2,6.9,7.8,10,11.1l9.8,10.2,7.7,8.1h0l10.9,10.4,9.7,9.2,3,2.9,11.5,9.9,5.6,4.8a659.2,659.2,0,0,0,99.4,69.4c45.2,25.9,88.7,42.3,110.6,49.8l21.6,7c4.4,1.5,8.5,2.5,12.1,3.5l4.7,1.2,14.6,4a3.9,3.9,0,0,1,2.5,2s2.5,4.7,6.4,11.2,9.8,16.5,15.1,24.9c3.2,5.2,6.3,9.9,9.2,14l.9,1.3.5.7c2.1,3.1,4,5.9,5.8,8.4ZM1711,1113.9h0Z"/><g class="cls-9"><path class="cls-10" d="M1566.2,956.5h16.2l-.3-4.7h-16c-1.3-29.1-3.7-58.1-7.3-86.7h9.5c-.3-1.5-.7-3.1-1.1-4.6h-9c-2.6-20.7-5.9-41.3-9.7-61.6-4-10.6-8.2-21.2-12.7-31.6l.9,4.3H1422.9q-7.1-41.4-16.9-80.7h89.5l-2.7-4.2H1405q-9.9-39.2-22.5-75.5h53.2l-3.6-3.9h-51a715.6,715.6,0,0,0-28.1-68.8h4.8l-4.5-3.4h-2a16.3,16.3,0,0,0-1.1-2.3l-7.9-5.9,3.9,8.2h-94.5a648.1,648.1,0,0,0-24.2-60.6h27.2l-6.4-3.1h-22.2c-2-4.2-4-8.3-6.1-12.4l-5.6-2.2c2.5,4.8,4.8,9.6,7.1,14.6h-84.9c-4.3-15.1-8.9-29.3-13.8-42.3l-4.4-.9c4.8,13.3,9.3,27.7,13.6,43.2h-85c-1.8-18.5-3.7-35.5-5.8-50.8h31.2c-8.1-1-16.1-1.8-24.2-2.5h-7.4v-.5a1.3,1.3,0,0,1-.1-.6h-4v.4a2.5,2.5,0,0,1,.1.8H963.2a2.5,2.5,0,0,1,.1-.8v-.4h-4a1.3,1.3,0,0,1-.1.6v.5h-7.4c-8.1.7-16.1,1.5-24.2,2.5h31.2c-2.1,15.3-4,32.3-5.8,50.8H868c4.3-15.5,8.8-29.9,13.6-43.2l1.9-5.1-4.2.5-2.1,5.5c-4.9,13-9.5,27.2-13.8,42.3H778.5c2.3-5,4.6-9.8,7.1-14.6L780,459c-2.1,4.1-4.1,8.2-6.1,12.4H751.7l-6.4,3.1h27.2a621.8,621.8,0,0,0-24.2,60.6H653.8l3.9-8.2-7.9,5.9a16.3,16.3,0,0,0-1.1,2.3h-2l-4.5,3.4H647a715.6,715.6,0,0,0-28.1,68.8h-51l-3.6,3.9h53.2q-12.6,36.3-22.5,75.5H507.2l-2.7,4.2H594q-9.9,39.3-16.9,80.7H463.3l.9-4.3c-4.5,10.4-8.7,21-12.7,31.6-3.8,20.3-7.1,40.9-9.7,61.6h-9c-.4,1.5-.8,3.1-1.1,4.6h9.5c-3.6,28.6-6,57.6-7.3,86.7h-16l-.3,4.7h16.2c-1.2,29.1-1.2,58.3,0,87.4H417.6l.3,4.7h16c1.3,29.1,3.7,58.1,7.3,86.7h-9.5c.3,1.6.7,3.1,1.1,4.6h9c2.6,20.8,5.9,41.3,9.7,61.6,4,10.7,8.2,21.2,12.7,31.6l-.9-4.3H577.1c4.7,27.6,10.3,54.6,16.9,80.7H504.5l2.7,4.3H595c6.6,26,14.1,51.2,22.5,75.4H564.3l3.6,3.9h51a715.6,715.6,0,0,0,28.1,68.8h-4.8l4.5,3.5h2a22.6,22.6,0,0,0,1.1,2.2c2.6,2,5.2,4,7.9,5.9l-3.9-8.1h94.5a642.7,642.7,0,0,0,24.2,60.6H745.3l6.4,3h22.2c2,4.2,4,8.4,6.1,12.4l5.6,2.2c-2.5-4.7-4.8-9.6-7.1-14.6h84.9q6.5,22.8,13.8,42.3l4.4.9c-4.8-13.2-9.3-27.7-13.6-43.2h85c1.8,18.5,3.7,35.6,5.8,50.8H927.6c8.1,1,16.1,1.9,24.2,2.5h7.4v.5l4.1.3a2.2,2.2,0,0,1-.1-.8h73.6a2.2,2.2,0,0,1-.1.8l4.1-.3v-.5h7.4c8.1-.6,16.1-1.5,24.2-2.5h-31.2c2.1-15.2,4-32.3,5.8-50.8h85c-4.3,15.5-8.8,30-13.6,43.2l4.4-.9q7.4-19.5,13.8-42.3h84.9c-2.3,5-4.6,9.9-7.1,14.6l5.6-2.2c2.1-4,4.1-8.2,6.1-12.4h22.2l6.4-3h-27.2c8.7-18.8,16.7-39.1,24.2-60.6h94.5l-3.9,8.1c2.7-1.9,5.3-3.9,7.9-5.9l1.1-2.2h2l4.5-3.5H1353a715.6,715.6,0,0,0,28.1-68.8h51l3.6-3.9h-53.2c8.4-24.2,15.9-49.4,22.5-75.4h87.8l2.7-4.3H1406c6.6-26.1,12.2-53.1,16.9-80.7h113.8l-.9,4.3c4.5-10.4,8.7-20.9,12.7-31.6,3.8-20.3,7.1-40.8,9.7-61.6h9c.4-1.5.8-3,1.1-4.6h-9.5c3.6-28.6,6-57.6,7.3-86.7h16l.3-4.7h-16.2C1567.4,1014.8,1567.4,985.6,1566.2,956.5Zm-6.5-4.7H1441c-1-29.1-2.8-58.1-5.6-86.7h117.1C1556,893.7,1558.4,922.7,1559.7,951.8Zm-243.8,96.8h118.7c-.9,29.1-2.8,58.1-5.5,86.7H1311.8C1313.9,1106.7,1315.2,1077.7,1315.9,1048.6Zm-4.1-183.5h117.3c2.7,28.6,4.6,57.6,5.5,86.7H1315.9C1315.2,922.7,1313.9,893.7,1311.8,865.1Zm4.2,178.8c.7-29.1.7-58.3,0-87.4h118.8c.8,29.1.8,58.3,0,87.4Zm221.7-267.8c5.9,27.6,10.6,55.8,14.3,84.4H1434.9c-2.8-28.6-6.6-56.8-11.2-84.4Zm-109.1,84.4H1311.5c-2-28.6-4.7-56.8-8-84.4h114C1422.1,803.7,1425.8,831.9,1428.6,860.5Zm-480,528.7c-1.2-24.2-2.2-49.4-3.1-75.4h109c-.9,26-1.9,51.2-3.1,75.4Zm102.7,3.9c-1.2,24.1-2.4,47.1-3.8,68.8h-95c-1.4-21.7-2.6-44.7-3.8-68.8Zm.1-781.9q1.8,36.3,3.1,75.5h-109q1.3-39.2,3.1-75.5Zm-102.7-3.9c1.2-24.1,2.4-47.1,3.8-68.8h95c1.4,21.7,2.6,44.7,3.8,68.8Zm239.5,253.2c-1.2-28.6-2.9-56.8-4.8-84.4h113.9c3.3,27.6,5.9,55.8,7.9,84.4Zm117.3,4.6c2,28.6,3.3,57.6,4,86.7H1190.9c-.5-29.1-1.3-58.1-2.5-86.7Zm-240.7-4.6c-.4-28.6-1-56.8-1.6-84.4h114c1.9,27.6,3.5,55.8,4.7,84.4Zm117.3,4.6c1.1,28.6,1.9,57.6,2.4,86.7H1065.7c-.1-29.1-.4-58.1-.8-86.7ZM1063,771.6q-1.1-41.4-2.5-80.7h109.3q4,39.3,7.1,80.7Zm0,457.2h113.9c-2,27.6-4.4,54.6-7.1,80.7H1060.5C1061.5,1283.4,1062.3,1256.4,1063,1228.8Zm.2-4.4c.6-27.7,1.2-55.9,1.6-84.5h117.1q-1.8,42.9-4.7,84.5Zm1.7-89.1c.4-28.6.7-57.6.8-86.7h118.8c-.5,29.1-1.3,58.1-2.4,86.7Zm.9-91.4c.1-29.1.1-58.3,0-87.4h118.7c.4,29.1.4,58.3,0,87.4ZM1183,771.6c-2-27.6-4.5-54.5-7.3-80.7H1285c4.5,26.2,8.5,53.1,11.8,80.7Zm-7.8-84.9q-4.2-39.2-9.7-75.5h102.9q8.8,36.3,15.8,75.5Zm-5.8,0h-109q-1.5-39.2-3.4-75.5h103Q1165.3,647.5,1169.4,686.7ZM943,1224.4q-.9-41.6-1.5-84.5h117q-.6,42.9-1.5,84.5Zm113.9,4.4c-.6,27.6-1.4,54.6-2.3,80.7H945.4c-.9-26.1-1.7-53.1-2.3-80.7Zm-115.5-93.5c-.3-28.6-.6-57.6-.7-86.7h118.6c-.1,29.1-.4,58.1-.7,86.7Zm-.7-91.4c-.2-29.1-.2-58.3,0-87.4h118.6c.2,29.1.2,58.3,0,87.4ZM1057,776.1c.6,27.6,1.1,55.8,1.5,84.4h-117c.4-28.6.9-56.8,1.5-84.4Zm-113.9-4.5q.9-41.4,2.3-80.7h109.2q1.4,39.3,2.3,80.7Zm115.5,93.5c.3,28.6.6,57.6.7,86.7H940.7c.1-29.1.4-58.1.7-86.7Zm-1.8-257.8c-1.3-24.1-2.7-47.1-4.2-68.8h95.1c4.2,21.7,8.2,44.7,11.7,68.8Zm-113.6,0H840.6c3.5-24.1,7.5-47.1,11.7-68.8h95.1C945.9,560.2,944.5,583.2,943.2,607.3Zm-.2,3.9q-1.9,36.3-3.4,75.5h-109q4.2-39.2,9.4-75.5Zm-7.9,253.9c-.4,28.6-.7,57.6-.8,86.7H815.5c.5-29.1,1.3-58.1,2.4-86.7Zm-117-4.6c1.2-28.6,2.8-56.8,4.7-84.4h114c-.6,27.6-1.2,55.8-1.6,84.4Zm116.1,96c-.1,29.1-.1,58.3,0,87.4H815.5c-.4-29.1-.4-58.3,0-87.4Zm.1,92.1c.1,29.1.4,58.1.8,86.7H817.9c-1.1-28.6-1.9-57.6-2.4-86.7Zm.9,91.3c.4,28.6,1,56.8,1.6,84.5h-114q-2.8-41.6-4.7-84.5Zm1.8,88.9c.7,27.6,1.5,54.6,2.5,80.7H830.2c-2.7-26.1-5.1-53.1-7.1-80.7Zm0-457.2H823.1q3-41.4,7.1-80.7H939.5Q938,730.2,937,771.6ZM824.8,686.7h-109q6.9-39.2,15.8-75.5H834.5Q829,647.5,824.8,686.7Zm-.5,4.2c-2.8,26.2-5.3,53.1-7.3,80.7H703.2c3.3-27.6,7.3-54.5,11.8-80.7Zm-7.7,85.2c-1.9,27.6-3.6,55.8-4.8,84.4h-117c2-28.6,4.6-56.8,7.9-84.4Zm-5,89c-1.2,28.6-2,57.6-2.5,86.7H690.5c.7-29.1,2-58.1,4-86.7Zm-2.5,91.4c-.4,29.1-.4,58.3,0,87.4H690.4c-.6-29.1-.6-58.3,0-87.4Zm0,92.1c.5,29.1,1.3,58.1,2.5,86.7H694.5c-2-28.6-3.3-57.6-4-86.7Zm2.7,91.3c1.2,28.6,2.9,56.8,4.8,84.5H702.7q-5-41.6-7.9-84.5Zm5.2,88.9c2,27.6,4.5,54.6,7.3,80.7H715c-4.5-26.1-8.5-53.1-11.8-80.7Zm7.8,85c2.8,26,6,51.2,9.7,75.4H731.6c-5.9-24.2-11.2-49.4-15.8-75.4Zm5.8,0h109c1,26,2.1,51.2,3.4,75.4H840C836.5,1365,833.4,1339.8,830.6,1313.8Zm112.6,79.3c1.3,24.1,2.7,47.1,4.2,68.8H852.3c-4.2-21.7-8.2-44.7-11.7-68.8Zm113.6,0h102.6c-3.5,24.1-7.5,47.1-11.7,68.8h-95.1C1054.1,1440.2,1055.5,1417.2,1056.8,1393.1Zm.2-3.9c1.3-24.2,2.4-49.4,3.4-75.4h109c-2.8,26-5.9,51.2-9.4,75.4Zm118.2-75.4h109c-4.6,26-9.9,51.2-15.8,75.4H1165.5C1169.2,1365,1172.4,1339.8,1175.2,1313.8Zm.5-4.3c2.8-26.1,5.3-53.1,7.3-80.7h113.8c-3.3,27.6-7.3,54.6-11.8,80.7Zm7.7-85.1c1.9-27.7,3.6-55.9,4.8-84.5h117q-3,42.9-7.9,84.5Zm5-89.1c1.2-28.6,2-57.6,2.5-86.7h118.6c-.7,29.1-2,58.1-4,86.7Zm2.5-91.4c.4-29.1.4-58.3,0-87.4h118.7c.6,29.1.6,58.3,0,87.4Zm225.9-272.3H1302.9q-5.1-41.4-12-80.7h109.3Q1409.8,730.2,1416.8,771.6Zm-17.7-84.9h-109q-7-39.2-16.1-75.5h102.9Q1389.4,647.5,1399.1,686.7Zm-51.2-148.2a741.6,741.6,0,0,1,27.7,68.8H1273c-6.1-24.1-12.8-47.1-20.1-68.8Zm-80.4,68.8H1164.9c-3.6-24.1-7.7-47.1-12.2-68.8h95C1255,560.2,1261.5,583.2,1267.5,607.3Zm-44.6-132.8a649.2,649.2,0,0,1,23.7,60.6H1152c-4.5-21.6-9.3-41.9-14.6-60.6Zm-90.1,0c5.1,18.7,9.8,39,14.1,60.6h-94.6c-1.5-21.6-3.1-41.9-5-60.6Zm-170-53.9h74.4c1.9,15.3,3.6,32.3,5.2,50.8H957.6C959.2,452.9,960.9,435.9,962.8,420.6Zm-5.5,53.9h85.4c1.6,18.7,3.2,39,4.6,60.6H952.7C954.1,513.5,955.7,493.2,957.3,474.5Zm-90.1,0h85.5c-1.9,18.7-3.5,39-5,60.6H853.1C857.4,513.5,862.1,493.2,867.2,474.5Zm-90.1,0h85.5c-5.3,18.7-10.1,39-14.6,60.6H753.4A649.2,649.2,0,0,1,777.1,474.5Zm-24.8,64h95c-4.5,21.7-8.6,44.7-12.2,68.8H732.5C738.5,583.2,745,560.2,752.3,538.5Zm-100.2,0h95c-7.3,21.7-14,44.7-20.1,68.8H624.4A741.6,741.6,0,0,1,652.1,538.5Zm-29,72.7H726q-9,36.3-16.1,75.5h-109Q610.7,647.6,623.1,611.2Zm-23.3,79.7H709.1q-6.9,39.3-12,80.7H583.2Q590.3,730.2,599.8,690.9Zm-17.3,85.2h114c-3.3,27.6-6,55.8-8,84.4H571.4C574.2,831.9,577.9,803.7,582.5,776.1ZM684,1043.9H565.2c-.8-29.1-.8-58.3,0-87.4H684C683.3,985.6,683.3,1014.8,684,1043.9Zm.1,4.7c.7,29.1,2,58.1,4.1,86.7H570.9c-2.7-28.6-4.6-57.6-5.5-86.7Zm0-96.8H565.4c.9-29.1,2.8-58.1,5.5-86.7H688.2C686.1,893.7,684.8,922.7,684.1,951.8ZM462.3,776.1h114c-4.6,27.6-8.4,55.8-11.2,84.4H448C451.7,831.9,456.4,803.7,462.3,776.1Zm-14.8,89H564.6c-2.8,28.6-4.6,57.6-5.6,86.7H440.3C441.6,922.7,444,893.7,447.5,865.1Zm-7.4,91.4H558.8c-.9,29.1-.9,58.3,0,87.4H440.1C439,1014.8,439,985.6,440.1,956.5Zm.2,92.1H559c1,29.1,2.8,58.1,5.6,86.7H447.5C444,1106.7,441.6,1077.7,440.3,1048.6Zm22,175.8c-5.9-27.7-10.6-55.9-14.3-84.5H565.1c2.8,28.6,6.6,56.8,11.2,84.5Zm109.1-84.5H688.5q3,42.9,8,84.5h-114Q575.6,1182.9,571.4,1139.9Zm11.8,88.9H697.1c3.4,27.6,7.4,54.6,12,80.7H599.8C593.4,1283.4,587.9,1256.4,583.2,1228.8Zm17.7,85h109c4.7,26,10.1,51.2,16.1,75.4H623.1C614.8,1365,607.4,1339.8,600.9,1313.8Zm51.2,148.1a741.6,741.6,0,0,1-27.7-68.8H727c6.1,24.1,12.8,47.1,20.1,68.8Zm80.4-68.8H835.1c3.6,24.1,7.7,47.1,12.2,68.8h-95C745,1440.2,738.5,1417.2,732.5,1393.1ZM777.1,1526c-8.5-18.8-16.4-39.1-23.7-60.6H848c4.5,21.5,9.3,41.8,14.6,60.6Zm90.1,0c-5.1-18.8-9.8-39.1-14.1-60.6h94.6c1.5,21.5,3.1,41.8,5,60.6Zm170,53.8H962.8c-1.9-15.2-3.6-32.3-5.2-50.8h84.8C1040.8,1547.5,1039.1,1564.6,1037.2,1579.8Zm5.5-53.8H957.3c-1.6-18.8-3.2-39.1-4.6-60.6h94.6C1045.9,1486.9,1044.3,1507.2,1042.7,1526Zm90.1,0h-85.5c1.9-18.8,3.5-39.1,5-60.6h94.6C1142.6,1486.9,1137.9,1507.2,1132.8,1526Zm90.1,0h-85.5c5.3-18.8,10.1-39.1,14.6-60.6h94.6C1239.3,1486.9,1231.4,1507.2,1222.9,1526Zm24.8-64.1h-95c4.5-21.7,8.6-44.7,12.2-68.8h102.6C1261.5,1417.2,1255,1440.2,1247.7,1461.9Zm100.2,0h-95c7.3-21.7,14-44.7,20.1-68.8h102.6A741.6,741.6,0,0,1,1347.9,1461.9Zm29-72.7H1274c6-24.2,11.4-49.4,16.1-75.4h109C1392.6,1339.8,1385.2,1365,1376.9,1389.2Zm23.3-79.7H1290.9c4.6-26.1,8.6-53.1,12-80.7h113.9C1412.1,1256.4,1406.6,1283.4,1400.2,1309.5Zm17.3-85.1h-114q4.9-41.6,8-84.5h117.1Q1424.4,1182.8,1417.5,1224.4Zm120.2,0h-114c4.6-27.7,8.4-55.9,11.2-84.5H1552C1548.3,1168.5,1543.6,1196.7,1537.7,1224.4Zm14.8-89.1H1435.4c2.8-28.6,4.6-57.6,5.6-86.7h118.7C1558.4,1077.7,1556,1106.7,1552.5,1135.3Zm7.4-91.4H1441.2c.9-29.1.9-58.3,0-87.4h118.7C1561,985.6,1561,1014.8,1559.9,1043.9Z"/></g><path class="cls-11" d="M974.4,946.3c24,10.1,51.8-1.8,61.3-22.5l.2-.3c0-.1,0-.1.1-.2a.4.4,0,0,1,.1-.3c0-.1.1-.1.1-.2s.1-.2.1-.3.1-.1.1-.2a.4.4,0,0,0,.1-.3l.2-.2a.4.4,0,0,1,.1-.3.3.3,0,0,0,.1-.2v-.2c0-.1.1-.2.1-.3a.3.3,0,0,0,.1-.2l.2-.3c0-.1,0-.2.1-.2s.1-.2.1-.3.1-.1.1-.2.1-.2.1-.3.1-.1.1-.2l.2-.3v-.2a.4.4,0,0,1,.1-.3.3.3,0,0,0,.1-.2c0-.1.1-.2.1-.3s.1-.1.1-.2a.3.3,0,0,0,.1-.2l.2-.3c0-.1,0-.2.1-.2s.1-.2.1-.3a.3.3,0,0,1,.1-.2c0-.1.1-.2.1-.3s.1-.1.1-.2l.2-.3c0-.1,0-.1.1-.2a.4.4,0,0,1,.1-.3c0-.1.1-.1.1-.2s.1-.2.1-.3.1-.1.1-.2a.4.4,0,0,0,.1-.3l.2-.2a.4.4,0,0,1,.1-.3.3.3,0,0,0,.1-.2.3.3,0,0,1,.1-.2.4.4,0,0,0,.1-.3v-.2l.2-.3c0-.1,0-.1.1-.2s.1-.2.1-.3.1-.1.1-.2.1-.2.1-.3v-.2l.2-.3a.3.3,0,0,1,.1-.2.4.4,0,0,1,.1-.3v-.2c0-.1.1-.2.1-.3s.1-.1.1-.2a.3.3,0,0,0,.1-.2l.2-.3c0-.1,0-.2.1-.2s.1-.2.1-.3.1-.1.1-.2.1-.2.1-.3.1-.1.1-.2l.2-.3c0-.1,0-.1.1-.2s.1-.2.1-.3a.3.3,0,0,0,.1-.2c0-.1.1-.2.1-.3s.1-.1.1-.2l.2-.3a.3.3,0,0,1,.1-.2c0-.1,0-.2.1-.2s.1-.2.1-.3a.3.3,0,0,1,.1-.2.4.4,0,0,0,.1-.3.3.3,0,0,0,.1-.2l.2-.3c0-.1,0-.1.1-.2s.1-.2.1-.3.1-.1.1-.2.1-.2.1-.3.1-.1.1-.2l.2-.3a.3.3,0,0,1,.1-.2.4.4,0,0,1,.1-.3.3.3,0,0,0,.1-.2v-.2a.4.4,0,0,0,.1-.3.3.3,0,0,0,.1-.2l.2-.3c0-.1,0-.2.1-.2s.1-.2.1-.3.1-.1.1-.2a.4.4,0,0,0,.1-.3c.1-.1.1-.1.1-.2l.2-.3v-.2c0-.1.1-.2.1-.3a.3.3,0,0,0,.1-.2,48.8,48.8,0,0,0,4.7-20.8c.7-19.7-9-35-21.7-47.8q-88-89.8-177.7-178c-21.6-21.3-51.7-21.1-77-2.1-22.4,16.8-30.9,47.1-17.4,72.2,7.1,13.2,3.1,19.8-6,28.9q-79.4,78.2-157.9,157.2c-32.3,32.5-51.8,70.1-43.2,117.8,5.6,31.9,21.6,58.2,43.9,80.9q74.6,76.6,150.1,152.2c13.1,13,27.4,25.1,44.9,32.5,25.6,10.9,49.2,5.9,65.5-16.6a73.9,73.9,0,0,0,5.4-9l.3-.6.3-.7a2.1,2.1,0,0,0,.4-.6l.3-.7.4-.6.3-.7.3-.6a2.5,2.5,0,0,0,.4-.7l.3-.6.4-.7.3-.6.3-.7a2.1,2.1,0,0,0,.4-.6l.3-.7.4-.6.3-.7.3-.6.4-.7.3-.6a4.3,4.3,0,0,1,.4-.7l.3-.6.3-.7.4-.6.3-.7.4-.6.3-.7.3-.7a2.1,2.1,0,0,0,.4-.6l.3-.7.4-.6.3-.7.3-.6a1.6,1.6,0,0,0,.4-.7l.3-.6a4.3,4.3,0,0,0,.4-.7l.3-.6.3-.7a2.1,2.1,0,0,0,.4-.6l.3-.7.4-.6.3-.7.3-.6a2.5,2.5,0,0,0,.4-.7l.3-.6.4-.7.3-.6.3-.7a2.1,2.1,0,0,0,.4-.6l.3-.7.4-.6.3-.7.3-.6a2.5,2.5,0,0,0,.4-.7l.3-.6a4.3,4.3,0,0,1,.4-.7l.3-.6.3-.7.4-.6.3-.7.4-.6.3-.7.3-.6.4-.7.3-.6a4.3,4.3,0,0,1,.4-.7l.3-.6.3-.7a1.6,1.6,0,0,0,.4-.7l.3-.6a4.3,4.3,0,0,0,.4-.7l.3-.6.3-.7a2.1,2.1,0,0,0,.4-.6l.3-.7.4-.6.3-.7.3-.6a1.6,1.6,0,0,0,.4-.7l.3-.6a4.3,4.3,0,0,0,.4-.7l.3-.6.3-.7a2.1,2.1,0,0,0,.4-.6l.3-.7.4-.6.3-.7.3-.6a2.5,2.5,0,0,0,.4-.7l.3-.6.4-.7.3-.6.3-.7a2.1,2.1,0,0,0,.4-.6l.3-.7.4-.6.3-.7.3-.6.4-.7.3-.6a4.3,4.3,0,0,1,.4-.7c8.2-16.2,6.7-36.3-5.8-48.7-39.2-39.4-78.4-78.6-118.4-117-20.9-20.3-22.2-41-1.3-62,34.2-34.5,68.7-68.8,102.9-103.4,6.8-7,11.6-7.7,18.6-.3,19.1,19.9,38.8,39,58.2,58.6C956.4,936,964.8,942.3,974.4,946.3Z"/><path class="cls-11" d="M1450.8,991.1c1.2-37.5-14.2-67-38.3-91.6-55.1-56.6-111.5-112-167.4-167.9-12-12-25.7-21.4-42-26.9-25.1-8.4-47.7-.4-61.8,22.9-.9,1.5-1.7,3.1-2.5,4.7l-.3.6-.4.7-.3.6-.3.7-.4.6-.3.7-.3.6-.4.7-.3.6a4.3,4.3,0,0,1-.4.7l-.3.7-.3.6a1.6,1.6,0,0,0-.4.7l-.3.6-.4.7-.3.6-.3.7-.4.6-.3.7a2.1,2.1,0,0,1-.4.6l-.3.7-.3.6a4.3,4.3,0,0,1-.4.7l-.3.7a2.1,2.1,0,0,1-.4.6l-.3.7-.3.6-.4.7-.3.6-.3.7a2.1,2.1,0,0,0-.4.6l-.3.7-.4.6-.3.7-.3.7a2.1,2.1,0,0,0-.4.6l-.3.7-.4.6-.3.7-.3.6a2.5,2.5,0,0,0-.4.7l-.3.6a1.6,1.6,0,0,1-.4.7l-.3.6-.3.7a4.3,4.3,0,0,0-.4.7l-.3.6-.4.7-.3.6-.3.7-.4.6-.3.7-.3.6a2.5,2.5,0,0,0-.4.7l-.3.6a4.3,4.3,0,0,1-.4.7l-.3.6-.3.7a1.6,1.6,0,0,0-.4.7l-.3.6a4.3,4.3,0,0,0-.4.7l-.3.6-.3.7-.4.6-.3.7-.4.6-.3.7-.3.6a4.3,4.3,0,0,1-.4.7l-.3.7a2.1,2.1,0,0,1-.4.6l-.3.7-.3.6a4.3,4.3,0,0,0-.4.7l-.3.6a2.5,2.5,0,0,1-.4.7l-.3.6-.3.7-.4.6-.3.7-.3.6-.4.7-.3.7-.4.6-.3.7-.3.6a2.5,2.5,0,0,0-.4.7l-.3.6-.4.7-.3.6-.3.7-.4.6-.3.7-.4.7-.3.6-.3.7-.4.6-.3.7a2.1,2.1,0,0,1-.4.6l-.3.7a44,44,0,0,0,8.4,51.6c38.9,38.9,78,77.6,116.9,116.5,21,21,21.5,36,1,56.9-34.7,35.4-70.2,70.1-105,105.4-6.6,6.6-11.3,7-17.8.1-18.2-18.8-36.9-37.1-55.4-55.6-9-9-19.1-16.6-31.2-20.9-21.4-7.5-42.4.1-56.6,20.4a32,32,0,0,0-3,5.4v.3c-.1,0-.1.1-.1.2l-.2.3v.5c-.1,0-.1.1-.1.2l-.2.3a.3.3,0,0,1-.1.2v.5a.4.4,0,0,0-.1.3c-.1,0-.1.1-.2.2v.5a.4.4,0,0,0-.1.3l-.2.2a.4.4,0,0,1-.1.3c0,.1-.1.1-.1.2v.3l-.2.2a.4.4,0,0,1-.1.3c0,.1-.1.1-.1.2v.5l-.2.3c0,.1,0,.1-.1.2v.3c0,.1-.1.1-.1.2l-.2.3c0,.1,0,.1-.1.2v.3c0,.1-.1.1-.1.2a.4.4,0,0,0-.1.3l-.2.2v.3a.3.3,0,0,1-.1.2.4.4,0,0,0-.1.3l-.2.2a.4.4,0,0,1-.1.3.3.3,0,0,1-.1.2v.5l-.2.3a.3.3,0,0,1-.1.2v.5l-.2.3a.4.4,0,0,1-.1.3v.2c0,.1-.1.2-.1.3s-.1.1-.1.2l-.2.3v.2c0,.1-.1.2-.1.3s-.1.1-.1.2l-.2.3a.3.3,0,0,1-.1.2c0,.1-.1.2-.1.3v.2l-.2.3a.3.3,0,0,1-.1.2c0,.1-.1.2-.1.3s-.1.1-.1.2a.4.4,0,0,0-.1.3l-.2.2a.4.4,0,0,1-.1.3c0,.1-.1.1-.1.2s-.1.2-.1.3l-.2.2a.4.4,0,0,1-.1.3c0,.1-.1.1-.1.2s-.1.2-.1.3v.2l-.2.3c0,.1,0,.1-.1.2s-.1.2-.1.3-.1.1-.1.2l-.2.3c0,.1,0,.1-.1.2s-.1.2-.1.3a.3.3,0,0,1-.1.2.4.4,0,0,0-.1.3c-.1.1-.1.2-.2.2s-.1.2-.1.3a.3.3,0,0,1-.1.2.4.4,0,0,0-.1.3c-.1.1-.1.2-.2.2a.4.4,0,0,1-.1.3.3.3,0,0,1-.1.2c0,.1-.1.2-.1.3v.2l-.2.3a.3.3,0,0,1-.1.2c0,.1-.1.2-.1.3v.2l-.2.3a.4.4,0,0,1-.1.3v.2c0,.1-.1.2-.1.3s-.1.1-.1.2c-7.9,17.1-3.7,38,11.8,57.8a167.7,167.7,0,0,0,14.5,15.9l164.3,165.8c23.4,23.5,54.1,28.2,78.3,12.2,28.4-18.7,36.6-47,21.3-79.9-5.6-12-1.3-18.4,6.6-26.2q81.2-80.4,161.4-161.4C1434.7,1060.1,1452.6,1029,1450.8,991.1Z"/><path class="cls-12" d="M874,673.6H756.9c.7-1.6,1.6-3.2,2.5-4.8H869.1Z"/><path class="cls-12" d="M906.9,706.3c1.6,1.5,3.3,3.1,4.8,4.8H753.6c-.4-1.6-.8-3.2-1.1-4.8Z"/><path class="cls-12" d="M1217.8,711.1h-62a41.2,41.2,0,0,1,7.7-4.8h43.8A82.7,82.7,0,0,1,1217.8,711.1Z"/><path class="cls-12" d="M944.5,743.7l4.7,4.8H755a41.1,41.1,0,0,0,3.9-4.8Z"/><path class="cls-12" d="M1262.1,748.5H1130.4l.3-.5.3-.7a.9.9,0,0,0,.3-.6l.4-.7.3-.6.4-.7.3-.7.2-.3h124.4Z"/><path class="cls-12" d="M981.7,781.1c1.6,1.6,3.2,3.3,4.8,4.8H717.3l4.9-4.8Z"/><path class="cls-12" d="M1299.7,785.9H1111l.3-.6a4.3,4.3,0,0,1,.4-.7l.3-.7.4-.6.3-.7.3-.6a1.6,1.6,0,0,0,.4-.7.3.3,0,0,0,.1-.2h181.3Z"/><path class="cls-12" d="M1018.6,818.6l4.7,4.8H679.6l4.8-4.8Z"/><path class="cls-12" d="M1337.3,823.4H1100.4c-.2-1.6-.3-3.2-.4-4.8h232.4Z"/><path class="cls-12" d="M1048,856a27.4,27.4,0,0,1,1.7,4.8H642.1l4.8-4.8Z"/><path class="cls-12" d="M1374.5,860.8H1124.8L1120,856h249.7Z"/><path class="cls-12" d="M609.5,893.4H849.4l-4.8,4.9H604.7Z"/><path class="cls-12" d="M1049.5,893.4a41.4,41.4,0,0,1-1.9,4.9H918.7l-4.8-4.9Z"/><path class="cls-12" d="M1411.4,898.3h-249l-4.8-4.9h249Z"/><path class="cls-12" d="M575.1,930.9H812l-4.8,4.8H571.6Z"/><path class="cls-12" d="M1031.5,930.9a48.1,48.1,0,0,1-4.2,4.8H956.9c-1.9-1.5-3.7-3.1-5.5-4.8Z"/><path class="cls-12" d="M1438.9,935.7H1200q-2.4-2.6-4.8-4.8h241.2Z"/><path class="cls-12" d="M555,968.3H774.7l-4.8,4.9H553.5A39.7,39.7,0,0,1,555,968.3Z"/><path class="cls-12" d="M1450.1,973.2H1236.9a58.1,58.1,0,0,0-4.2-4.9h216.7C1449.7,969.9,1449.9,971.5,1450.1,973.2Z"/><path class="cls-12" d="M754.4,1005.7a28.9,28.9,0,0,0,.7,4.9H549.2c-.1-1.7-.1-3.3-.1-4.9Z"/><path class="cls-12" d="M1450.6,1005.7l-.6,4.9H1241.2c1-1.7,1.8-3.3,2.6-4.9Z"/><path class="cls-12" d="M778.5,1043.2l5,4.8H556.7l-1.6-4.8Z"/><path class="cls-12" d="M1440.1,1043.2c-.7,1.6-1.6,3.2-2.4,4.8H1206.1l4.8-4.8Z"/><path class="cls-12" d="M816.8,1080.6c1.7,1.6,3.3,3.2,4.9,4.9H576.4l-3.3-4.9Z"/><path class="cls-12" d="M1061.1,1080.6l4.8,4.9H958.3c0-.1.1-.1.1-.2a.4.4,0,0,0,.1-.3v-.2l.2-.2a.4.4,0,0,1,.1-.3v-.3c0-.1.1-.1.1-.2l.2-.3v-.5c.1,0,.1-.1.1-.2l.2-.3v-.2l.2-.3c0-.1.1-.1.1-.2v-.3l.2-.2a.4.4,0,0,1,.1-.3v-.3h100.5Z"/><path class="cls-12" d="M1414.1,1080.6c-1.5,1.7-3,3.3-4.6,4.9H1168.7c1.5-1.6,3.1-3.3,4.8-4.9Z"/><path class="cls-12" d="M854.5,1118.1l4.9,4.8H610.1l-4.7-4.8Z"/><path class="cls-12" d="M1098.4,1118.1l4.8,4.8h-157a38.4,38.4,0,0,1,0-4.8Z"/><path class="cls-12" d="M1377.1,1118.1l-4.7,4.8H1131.3c1.6-1.7,3.2-3.3,4.9-4.8Z"/><path class="cls-12" d="M891.6,1155.5a25.6,25.6,0,0,1,3.3,4.8H646.8l-4.7-4.8Z"/><path class="cls-12" d="M1339.9,1155.5l-4.9,4.8H961.8q-1.9-2.4-3.6-4.8Z"/><path class="cls-12" d="M678.9,1193H898.2a45.9,45.9,0,0,1-1.7,4.8H683.7Z"/><path class="cls-12" d="M1302.3,1193l-4.8,4.8h-300l-4.7-4.8Z"/><path class="cls-12" d="M716,1230.4H879.7l-.2.3a3.6,3.6,0,0,1-.3.7l-.3.6-.4.7-.3.6-.3.7-.4.6-.3.6H720.8Z"/><path class="cls-12" d="M1264.7,1230.4l-4.8,4.8H1034.7l-4.8-4.8Z"/><path class="cls-12" d="M753.7,1267.8H860.2c-.9,1.7-1.8,3.2-2.8,4.8H759.2C757.3,1271.1,755.5,1269.5,753.7,1267.8Z"/><path class="cls-12" d="M1239.5,1272.6H1071.7c-1.6-1.6-3.2-3.1-4.7-4.8h171A20.2,20.2,0,0,0,1239.5,1272.6Z"/><path class="cls-12" d="M1247.8,1305.3a38.5,38.5,0,0,1-.2,4.8H1108.8l-4.7-4.8Z"/><path class="cls-12" d="M1232.7,1342.7a55.5,55.5,0,0,1-4.9,4.8h-81.2c-1.9-1.5-3.6-3.1-5.4-4.8Z"/><path class="cls-12" d="M1450.8,991.1c1.2-37.5-14.2-67-38.3-91.6-55.1-56.6-111.5-112-167.4-167.9-12-12-25.7-21.4-42-26.9-25.1-8.4-47.7-.4-61.8,22.9s-10.7,52.5,9.1,72.4c51.6,51.7,103.5,103,155.2,154.6,27.8,27.8,28.5,47.8,1.3,75.5-46.1,47-93.2,93.1-139.4,139.9-8.7,8.8-15,9.3-23.6.2-24.2-25-49-49.3-73.6-73.9-11.9-11.9-25.3-22-41.4-27.7-28.3-10-56.3.2-75,27.1-12.7,18.2-9.8,42.2,7.9,64.7a167.7,167.7,0,0,0,14.5,15.9l164.3,165.8c23.4,23.5,54.1,28.2,78.3,12.2,28.4-18.7,36.6-47,21.3-79.9-5.6-12-1.3-18.4,6.6-26.2q81.2-80.4,161.4-161.4C1434.7,1060.1,1452.6,1029,1450.8,991.1Z"/><path class="cls-12" d="M1052,878.3c.7-19.7-9-35-21.7-47.8q-88-89.8-177.7-178c-21.6-21.3-51.7-21.1-77-2.1-22.4,16.8-30.9,47.1-17.4,72.2,7.1,13.2,3.1,19.8-6,28.9q-79.4,78.2-157.9,157.2c-32.3,32.5-51.8,70.1-43.2,117.8,5.6,31.9,21.6,58.2,43.9,80.9q74.6,76.6,150.1,152.2c13.1,13,27.4,25.1,44.9,32.5,25.6,10.9,49.2,5.9,65.5-16.6s16-54.2-2.7-72.8c-52-52.3-104.1-104.3-157.1-155.4-27.8-26.8-29.5-54.4-1.8-82.2,45.4-45.8,91.3-91.3,136.5-137.3,9.1-9.3,15.4-10.2,24.8-.4,25.3,26.4,51.5,51.8,77.2,77.8,9.8,9.9,20.9,18.2,33.6,23.5C1005.2,945.2,1051.9,917.6,1052,878.3Z"/></g></svg>