<svg xmlns="http://www.w3.org/2000/svg" viewBox="0 0 2000 2000"><defs><style>.cls-1{fill:none;stroke:#fff;stroke-linecap:round;stroke-linejoin:round;stroke-width:2px;}.cls-2{fill:#fff;}</style></defs><title>Label3</title><g id="Layer_7" data-name="Layer 7"><path class="cls-1" d="M978,956.3c20.4,8.7,44.1-1.5,52.2-19.1,0-.1.1-.2.1-.3v-.2a.3.3,0,0,0,.1-.2.3.3,0,0,0,.1-.2c0-.1.1-.1.1-.2s.1-.1.1-.2.1-.1.1-.2a.3.3,0,0,1,.1-.2.3.3,0,0,1,.1-.2c0-.1.1-.2.1-.3a196686619340.6,196686619340.6,0,0,1,.2-.4.3.3,0,0,0,.1-.2c0-.1.1-.1.1-.2s0-.1.1-.2,0-.1.1-.2,0-.2.1-.2,0-.2.1-.2,0-.2.1-.2a.4.4,0,0,1,.1-.3,614645685391.6,614645685391.6,0,0,0,.3-.6v-.2c0-.1,0-.1.1-.2s0-.1.1-.2,0-.2.1-.2,0-.2.1-.2,0-.2.1-.2a.4.4,0,0,1,.1-.3v-.2a327811032234.6,327811032234.6,0,0,0,.2-.4c0-.1,0-.1.1-.2s0-.1.1-.2v-.6a.3.3,0,0,0,.1-.2.4.4,0,0,0,.1-.3c.1,0,.1-.1.1-.2s.1-.1.1-.2.1-.1.1-.2.1-.1.1-.2v-.2c.1-.1.1-.1.1-.2a196686619340.6,196686619340.6,0,0,1,.2-.4.3.3,0,0,0,.1-.2.4.4,0,0,0,.1-.3c.1,0,.1-.1.1-.2s.1-.1.1-.2.1-.1.1-.2.1-.1.1-.2.1-.1.1-.2.1-.1.1-.2v-.2a245858274176,245858274176,0,0,0,.2-.4c0-.1.1-.2.1-.3a921968528087.5,921968528087.5,0,0,1,.3-.6c0-.1.1-.1.1-.2s.1-.1.1-.2.1-.1.1-.2v-.2a327811032234.7,327811032234.7,0,0,0,.2-.4c0-.1.1-.2.1-.3v-.2a245858274175.9,245858274175.9,0,0,1,.2-.4c0-.1.1-.1.1-.2s.1-.1.1-.2.1-.1.1-.2a245858274175.9,245858274175.9,0,0,1,.2-.4v-.2c0-.1.1-.2.1-.3a.3.3,0,0,0,.1-.2,196686619340.7,196686619340.7,0,0,1,.2-.4c0-.1,0-.1.1-.2s0-.1.1-.2v-.2c0-.1,0-.2.1-.2s0-.2.1-.2,0-.2.1-.2a.4.4,0,0,1,.1-.3,245858274175.9,245858274175.9,0,0,0,.2-.4v-.2c0-.1,0-.1.1-.2s0-.1.1-.2,0-.1.1-.2,0-.2.1-.2,0-.2.1-.2a.4.4,0,0,1,.1-.3v-.2a43.7,43.7,0,0,0,4-17.7c.6-16.7-7.7-29.7-18.5-40.7q-75-76.5-151.4-151.6c-18.3-18.1-44-17.9-65.5-1.7-19.1,14.2-26.4,40.1-14.9,61.4,6.1,11.3,2.7,16.9-5.1,24.6Q721.2,857,654.3,924.3c-27.5,27.7-44.1,59.7-36.9,100.3,4.9,27.2,18.5,49.6,37.5,69q63.5,65.1,127.8,129.6c11.1,11.1,23.3,21.3,38.2,27.7,21.8,9.2,41.9,5,55.8-14.2a49.6,49.6,0,0,0,4.6-7.6l.3-.6.3-.6.3-.5a1.4,1.4,0,0,1,.2-.6l.3-.5.3-.6.3-.5.3-.6.3-.5.3-.6.3-.5.3-.6a1.4,1.4,0,0,0,.2-.6l.3-.5.3-.6.3-.5.3-.6.3-.5.3-.6.3-.5.3-.6.3-.5a1.4,1.4,0,0,1,.2-.6l.3-.6.3-.5.3-.6.3-.5.3-.6.3-.5.3-.6.3-.5a1.4,1.4,0,0,0,.2-.6l.3-.5.3-.6.3-.6.3-.5.3-.6.3-.5.3-.6.3-.5.3-.6c0-.2.1-.3.2-.5l.3-.6.3-.5.3-.6.3-.6.3-.5.3-.6.3-.5.3-.6c.1-.2.2-.3.2-.5l.3-.6.3-.5.3-.6.3-.5.3-.6.3-.6.3-.5.3-.6.3-.5a1.4,1.4,0,0,1,.2-.6l.3-.5.3-.6.3-.5.3-.6.3-.5.3-.6.3-.6.3-.5a1.4,1.4,0,0,0,.2-.6l.3-.5.3-.6.3-.5.3-.6.3-.5.3-.6.3-.5.3-.6.3-.6a1.7,1.7,0,0,1,.2-.5l.3-.6.3-.5.3-.6.3-.5.3-.6.3-.5.3-.6.3-.5a1.4,1.4,0,0,0,.2-.6l.3-.6.3-.5.3-.6.3-.5.3-.6.3-.5.3-.6.3-.5.3-.6a.8.8,0,0,1,.2-.5l.3-.6c7.1-13.8,5.7-30.9-4.9-41.5-33.3-33.5-66.8-66.9-100.8-99.7-17.8-17.2-18.9-34.9-1.1-52.7,29.1-29.4,58.5-58.6,87.6-88.1,5.8-6,9.9-6.6,15.9-.2,16.2,16.9,33,33.2,49.5,49.9A67.2,67.2,0,0,0,978,956.3Z"/><path class="cls-1" d="M1383.7,994.5c1-31.9-12.1-57-32.6-78-47-48.2-95-95.4-142.6-143-10.2-10.3-21.9-18.3-35.7-22.9-21.5-7.2-40.7-.4-52.7,19.5l-2.1,4-.3.5-.3.6-.3.5-.3.6-.2.5-.3.6-.3.6-.3.5-.3.6-.3.5-.3.6-.3.5-.3.6a1.4,1.4,0,0,0-.2.6l-.3.5-.3.6-.3.5-.3.6-.3.5-.3.6-.3.6-.3.5a1.4,1.4,0,0,0-.2.6l-.3.5-.3.6-.3.5-.3.6-.3.6-.3.5-.3.6-.3.5a1.4,1.4,0,0,0-.2.6l-.3.5-.3.6-.3.6-.3.5-.3.6-.3.5-.3.6-.3.5a1.4,1.4,0,0,0-.2.6l-.3.6-.3.5-.3.6-.3.5-.3.6-.3.5-.3.6-.3.6a.8.8,0,0,0-.2.5l-.3.6-.3.5-.3.6-.3.5-.3.6-.3.6-.3.5-.3.6c-.1.2-.2.3-.2.5l-.3.6-.3.5-.3.6-.3.6-.3.5-.3.6-.3.5-.3.6a1.7,1.7,0,0,0-.2.5l-.3.6-.3.6-.3.5-.3.6-.3.5-.3.6-.3.5-.3.6a1.4,1.4,0,0,0-.2.6l-.3.5-.3.6-.3.5-.3.6-.3.5-.3.6-.3.6-.3.5a1.4,1.4,0,0,0-.2.6l-.3.5-.3.6-.3.5-.3.6-.3.6-.3.5-.3.6-.3.5a1.4,1.4,0,0,0-.2.6l-.3.5-.3.6-.3.6-.3.5-.3.6c-7.4,14.5-4.8,31.9,7.2,44,33.1,33.1,66.4,66,99.5,99.2,17.9,17.8,18.4,30.6.9,48.4-29.6,30.1-59.8,59.7-89.5,89.8-5.5,5.6-9.6,5.9-15.1,0-15.5-15.9-31.5-31.6-47.2-47.3-7.7-7.7-16.2-14.2-26.6-17.8-18.2-6.4-36.1.1-48.1,17.4a23.5,23.5,0,0,0-2.6,4.6c-.1,0-.1.1-.1.2v.2c-.1.1-.1.1-.1.2a.3.3,0,0,0-.1.2v.2a.4.4,0,0,0-.1.3l-.2.2a.3.3,0,0,1-.1.2c0,.1,0,.1-.1.2v.2c0,.1,0,.2-.1.2s0,.2-.1.2a.4.4,0,0,1-.1.3v.4c0,.1-.1.1-.1.2s-.1.1-.1.2v.4c0,.1-.1.2-.1.3v.6c-.1.1-.1.1-.1.2s-.1.1-.1.2v.4a.4.4,0,0,0-.1.3c-.1,0-.1.1-.1.2s-.1.1-.2.2v.4c0,.1,0,.2-.1.2s0,.2-.1.2a.4.4,0,0,1-.1.3.3.3,0,0,1-.1.2v.2c0,.1-.1.1-.1.2s-.1.1-.1.2v.2a.3.3,0,0,1-.1.2c0,.1-.1.2-.1.3v.4c0,.1-.1.1-.1.2s-.1.1-.1.2v.4a.4.4,0,0,0-.1.3c-.1,0-.1.1-.1.2s-.1.1-.1.2-.1.1-.1.2l-.2.2v.2c0,.1,0,.2-.1.2s0,.2-.1.2a.4.4,0,0,1-.1.3.3.3,0,0,1-.1.2v.6a.3.3,0,0,1-.1.2.3.3,0,0,1-.1.2v.5a.3.3,0,0,0-.1.2c0,.1-.1.1-.1.2v.2a.3.3,0,0,1-.1.2v.2a.4.4,0,0,0-.1.3c-.1,0-.1.1-.1.2s-.1.1-.1.2-.1.1-.1.2v.2c-.1.1-.1.2-.2.2s0,.2-.1.2a.4.4,0,0,1-.1.3.3.3,0,0,1-.1.2v.6c0,.1,0,.1-.1.2a.3.3,0,0,1-.1.2v.5a.3.3,0,0,0-.1.2.3.3,0,0,0-.1.2v.2c0,.1-.1.1-.1.2a.3.3,0,0,1-.1.2v.2a.4.4,0,0,0-.1.3c-.1,0-.1.1-.1.2s-.1.1-.1.2v.6a.3.3,0,0,0-.1.2l-.2.3c-6.6,14.5-3.1,32.3,10.1,49.2a143.8,143.8,0,0,0,12.3,13.5l140,141.2c19.9,20,46.1,24,66.7,10.4,24.2-15.9,31.2-40,18.1-68-4.8-10.3-1.1-15.7,5.7-22.4q69-68.4,137.4-137.4C1370,1053.3,1385.2,1026.8,1383.7,994.5Z"/><path class="cls-2" d="M892.5,724.1H792.8a31.7,31.7,0,0,1,2.1-4.1h93.4Z"/><path class="cls-2" d="M920.5,751.9l4.1,4.1H790a27.3,27.3,0,0,1-1-4.1Z"/><path class="cls-2" d="M1185.2,756h-52.8a45.3,45.3,0,0,1,6.6-4.1h37.3A80.5,80.5,0,0,1,1185.2,756Z"/><path class="cls-2" d="M952.5,783.8l4,4.1H791.1a37.1,37.1,0,0,0,3.3-4.1Z"/><path class="cls-2" d="M1223,787.9H1110.8l.3-.5c.1-.2.2-.3.2-.5s.2-.4.3-.6a1.3,1.3,0,0,0,.3-.5l.3-.6.3-.6.3-.5a.4.4,0,0,0,.1-.3h105.9Z"/><path class="cls-2" d="M984.2,815.7l4,4.1H759l4.2-4.1Z"/><path class="cls-2" d="M1255,819.8H1094.3l.3-.5.3-.6.3-.5c0-.2.2-.4.3-.6a1.1,1.1,0,0,0,.2-.6c.2-.1.2-.3.3-.5s.2-.4.3-.6h154.6Z"/><path class="cls-2" d="M1015.6,847.6c1.4,1.3,2.7,2.7,4,4.1H726.9l4.1-4.1Z"/><path class="cls-2" d="M1287,851.7H1085.3c-.2-1.4-.3-2.7-.4-4.1h198Z"/><path class="cls-2" d="M1040.7,879.4c.5,1.3,1,2.7,1.4,4.1H695c1.3-1.4,2.7-2.7,4.1-4.1Z"/><path class="cls-2" d="M1318.7,883.5H1106l-4.1-4.1h212.7Z"/><path class="cls-2" d="M667.2,911.3H871.5c-1.4,1.4-2.7,2.8-4.1,4.1H663.1C664.5,914,665.9,912.7,667.2,911.3Z"/><path class="cls-2" d="M1041.9,911.3a29,29,0,0,1-1.6,4.1H930.6l-4.1-4.1Z"/><path class="cls-2" d="M1350.1,915.4h-212l-4.1-4.1h212.1C1347.4,912.7,1348.7,914.1,1350.1,915.4Z"/><path class="cls-2" d="M637.9,943.2H839.7c-1.4,1.4-2.7,2.8-4.1,4.1H635C635.9,945.9,636.9,944.6,637.9,943.2Z"/><path class="cls-2" d="M1026.6,943.2a35.2,35.2,0,0,1-3.6,4.1H963.1a59.9,59.9,0,0,1-4.7-4.1Z"/><path class="cls-2" d="M1373.5,947.3H1170.1l-4.1-4.1h205.4C1372.1,944.6,1372.9,945.9,1373.5,947.3Z"/><path class="cls-2" d="M620.8,975.1H807.9c-1.4,1.4-2.7,2.8-4.1,4.1H619.5C619.9,977.8,620.3,976.5,620.8,975.1Z"/><path class="cls-2" d="M1383.1,979.2H1201.5a42.3,42.3,0,0,0-3.6-4.1h184.6Z"/><path class="cls-2" d="M790.6,1007a31.2,31.2,0,0,0,.6,4.1H615.9c-.1-1.4-.1-2.8-.1-4.1Z"/><path class="cls-2" d="M1383.5,1007c-.2,1.3-.3,2.7-.5,4.1H1205.1c.9-1.4,1.6-2.8,2.3-4.1Z"/><path class="cls-2" d="M811.1,1038.9c1.5,1.3,2.9,2.7,4.3,4.1H622.3c-.5-1.4-1-2.7-1.4-4.1Z"/><path class="cls-2" d="M1374.6,1038.9l-2.1,4.1H1175.3l4.1-4.1Z"/><path class="cls-2" d="M843.8,1070.8c1.4,1.3,2.7,2.7,4.1,4.1H639l-2.8-4.1Z"/><path class="cls-2" d="M1051.8,1070.8l4.1,4.1H964.3v-.2l.2-.2v-.2l.2-.2a.4.4,0,0,1,.1-.3v-.4c0-.1,0-.1.1-.2s.1-.1.1-.2,0-.2.1-.2v-.4a.3.3,0,0,1,.1-.2c0-.1.1-.2.1-.3v-.2c0-.1.1-.1.1-.2s.1-.1.1-.2v-.2c0-.1.1-.2.1-.3h85.6Z"/><path class="cls-2" d="M1352.4,1070.8c-1.2,1.4-2.5,2.7-3.9,4.1H1143.4c1.4-1.4,2.7-2.8,4.1-4.1Z"/><path class="cls-2" d="M875.9,1102.6c1.3,1.4,2.7,2.8,4.1,4.1H667.7l-4-4.1Z"/><path class="cls-2" d="M1083.6,1102.6l4.1,4.1H953.9v-4.1Z"/><path class="cls-2" d="M1320.9,1102.6a51.4,51.4,0,0,1-4,4.1H1111.6l4.1-4.1Z"/><path class="cls-2" d="M907.5,1134.5a20.7,20.7,0,0,1,2.7,4.1H699l-4.1-4.1Z"/><path class="cls-2" d="M1289.2,1134.5c-1.3,1.4-2.7,2.8-4.1,4.1H967.2a39.1,39.1,0,0,1-3-4.1Z"/><path class="cls-2" d="M726.3,1166.4H913a19.8,19.8,0,0,1-1.4,4.1H730.4Z"/><path class="cls-2" d="M1257.2,1166.4c-1.3,1.4-2.7,2.8-4.1,4.1H997.7c-1.4-1.3-2.7-2.7-4.1-4.1Z"/><path class="cls-2" d="M757.9,1198.3H897.3a.3.3,0,0,1-.1.2l-.3.6-.3.6-.3.5-.3.6c0,.2-.2.3-.2.5s-.3.4-.3.6l-.3.5H762Z"/><path class="cls-2" d="M1225.2,1198.3l-4.1,4.1H1029.3c-1.4-1.4-2.8-2.7-4.1-4.1Z"/><path class="cls-2" d="M790,1230.1h90.7a44.9,44.9,0,0,1-2.4,4.2H794.7Z"/><path class="cls-2" d="M1203.7,1234.3H1060.9l-4.1-4.2h145.7A19.3,19.3,0,0,0,1203.7,1234.3Z"/><path class="cls-2" d="M1210.8,1262a27.5,27.5,0,0,1-.2,4.1H1092.5c-1.4-1.3-2.8-2.7-4.1-4.1Z"/><path class="cls-2" d="M1198,1293.9a41.7,41.7,0,0,1-4.3,4.1h-69.1a43.6,43.6,0,0,1-4.6-4.1Z"/><path class="cls-2" d="M1383.7,994.5c1-31.9-12.1-57-32.6-78-47-48.2-95-95.4-142.6-143-10.2-10.3-21.9-18.3-35.7-22.9-21.5-7.2-40.7-.4-52.7,19.5s-9.1,44.7,7.7,61.6c44,44,88.2,87.7,132.2,131.7,23.7,23.7,24.3,40.7,1.2,64.3-39.3,40-79.4,79.3-118.8,119.2-7.4,7.5-12.7,7.9-20.1.1-20.6-21.2-41.7-42-62.7-62.9-10.1-10.1-21.5-18.7-35.2-23.6-24.1-8.5-47.9.1-63.9,23.1-10.8,15.5-8.3,35.9,6.7,55.1a143.8,143.8,0,0,0,12.3,13.5l140,141.2c19.9,20,46.1,24,66.7,10.4,24.2-15.9,31.2-40,18.1-68-4.8-10.3-1.1-15.7,5.7-22.4q69-68.4,137.4-137.4C1370,1053.3,1385.2,1026.8,1383.7,994.5Z"/><path class="cls-2" d="M1044.1,898.4c.6-16.7-7.7-29.7-18.5-40.7q-75-76.5-151.4-151.6c-18.3-18.1-44-17.9-65.5-1.7-19.1,14.2-26.4,40.1-14.9,61.4,6.1,11.3,2.7,16.9-5.1,24.6Q721.2,857,654.3,924.3c-27.5,27.7-44.1,59.7-36.9,100.3,4.9,27.2,18.5,49.6,37.5,69q63.5,65.1,127.8,129.6c11.1,11.1,23.3,21.3,38.2,27.7,21.8,9.2,41.9,5,55.8-14.2s13.6-46.1-2.3-62c-44.3-44.5-88.7-88.8-133.8-132.3-23.7-22.9-25.1-46.4-1.5-70.1,38.6-38.9,77.7-77.7,116.3-116.9,7.7-7.9,13.1-8.7,21.1-.3,21.5,22.5,43.8,44.1,65.7,66.3,8.3,8.4,17.8,15.5,28.6,20C1004.2,955.4,1044,931.9,1044.1,898.4Z"/><path class="cls-2" d="M758.3,514l-20.4,12.7c-2.3,1.3-4.1.8-5.3-1.4L701,474.4q-10.2-16.3-20.7-20.4c-7.1-2.7-14-1.9-20.7,2.3l-20,12.4,51.2,82.6c1.3,2.3,1,4-1.1,5.3l-20.4,12.7c-2.3,1.3-4,.8-5.2-1.4L600,464.8c-1.3-2.2-.9-4,1.1-5.3l43.7-27.1q24.3-15.1,45.3-8.4c13.9,4.5,26.5,15.8,37.6,33.7l31.7,51C760.8,510.9,760.4,512.7,758.3,514Z"/><path class="cls-2" d="M590,619.7q-3.6-22.1-28.2-41.4T515,559.9c-14.9.8-28.4,8.9-40.7,24.3l-34,42.9c-1.6,1.9-1.3,3.7.7,5.4l95,75.4c2,1.7,3.8,1.6,5.5-.5l34-42.8C587.6,649.3,592.5,634.3,590,619.7Zm-36.5,27.4-16.8,21.1-57.1-45.4,16.7-21.1q7.2-9.2,18.3-9.3c7.4-.1,15.8,3.6,25.2,11s15.4,14.9,17.9,22.4S558.9,640.3,553.5,647.1Z"/><path class="cls-2" d="M879.3,471,782,503.1c-2.5.9-4.1,0-4.8-2.5L739.1,385.4c-.8-2.5-.1-4.2,2.3-5l95.7-31.6c2.5-.8,4.2,0,5,2.5l6.4,19.4c.8,2.5,0,4.1-2.6,4.8l-69.3,22.9,7,21.3,64.3-21.2c2.5-.8,4.2,0,5,2.5l6.4,19.4c.8,2.4,0,4.1-2.5,4.8l-64.3,21.2,7,21.3,71-23.4c2.5-.8,4.1,0,4.9,2.5l6.4,19.2C882.6,468.5,881.8,470.1,879.3,471Z"/><path class="cls-2" d="M458.1,978.1l-.6,24c-.1,2.6-1.4,3.8-4,3.6l-121.4-2.8c-2.6.1-3.9-1.2-3.8-3.9l.6-23.9c0-2.7,1.4-3.9,4-3.7l121.3,2.8Q458.1,974.4,458.1,978.1Z"/><path class="cls-2" d="M1016.3,453c.1,2.7-1.1,4.1-3.6,4.3L989,459.1c-2.7.1-4.1-1.1-4.3-3.6l-.3-4.1q-2.1-27.3-11.1-34.2c-5.1-4-11.8-5.9-20-5.8s-14.7,4.1-19.1,8.8-7.1,17.3-5.7,35.5l.3,4.2q.3,3.8-3.6,4.2l-23.7,1.8c-2.5.2-4-1-4.3-3.6l-.3-4.1q-3.3-42,12.5-53.1a58.6,58.6,0,0,1,11.1-6q-25.5-11.6-28.8-53.9l-.3-4.1c-.2-2.7.9-4.1,3.4-4.3l24-1.8c2.6-.2,3.9,1,4,3.6l.3,4.1c1.5,19.4,4.3,31,8.3,34.9s10.5,5.6,19.6,5.4,15.3-4,18.5-8.4,4.2-16.4,2.7-35.7l-.3-4.1c-.3-2.6.9-4.1,3.4-4.2l23.9-1.9c2.6-.2,4,1,4.1,3.6l.3,4.1c2.2,28.3-4.5,47.5-20.1,57.8a41.8,41.8,0,0,1,11.9,4.2q17.1,8.6,20.6,50.5Z"/><path class="cls-2" d="M466.3,905.7l-8.5,43.5c-.5,2.5-2,3.5-4.6,3L334.1,928.8c-2.4-.5-3.5-1.9-3.1-4.4l4.6-23.6c.5-2.4,2-3.4,4.6-2.9l95.4,18.7,3.2-16.3c1.9-10.2-.1-18.8-6.3-25.8s-18.2-12.2-36.1-15.7l-46.8-9.2c-2.4-.5-3.5-2-3.1-4.4l4.6-23.6c.5-2.5,2-3.4,4.6-2.9l46.8,9.1q41.1,8.1,55.5,27.7C467.6,868.5,470.3,885.3,466.3,905.7Z"/><path class="cls-2" d="M528.5,729.1l-42.6,93.2c-1.1,2.4-2.8,3-5.2,1.8L370.4,773.7c-2.4-1.1-3.1-2.8-2-5.1l41.9-91.7c1-2.4,2.8-3,5.2-1.9l18.5,8.5q3.6,1.7,1.8,5.1L405.5,755l20.4,9.3L454,702.8c1.1-2.4,2.9-3.1,5.3-2l18.5,8.5c2.4,1.1,3,2.8,1.8,5.2L451.4,776l20.5,9.4,31-68c1.1-2.4,2.9-3,5.3-1.9l18.3,8.4C528.9,724.9,529.6,726.7,528.5,729.1Z"/><path class="cls-2" d="M1575.3,659.7l-62.7,44.7c-12.7,9.1-25.3,12.8-37.8,10.9s-24.2-10.5-35.3-26l-.3-.4c-11-15.4-15.5-29.5-13.7-42.5s9.1-24.2,21.9-33.3l62.7-44.7c2.1-1.6,3.9-1.3,5.4.7l13.8,19.4c1.5,2.2,1.2,4-.9,5.5l-62.5,44.6c-5.9,4.2-9,9.4-9.4,15.5s1.7,12.4,6.1,18.6,9.3,9.8,14.8,10.8,11.1-.6,17.1-4.8l62.5-44.6c2.1-1.6,3.9-1.3,5.3.7l14,19.6C1577.8,656.5,1577.5,658.3,1575.3,659.7Z"/><path class="cls-2" d="M1623.1,798.1c-6.9,12.9-20.1,23.4-39.7,31.2l-55.7,22.3c-2.5,1-4.1.3-5.1-2l-8.9-22.3c-.9-2.4-.1-4.1,2.3-4.9l55.6-22.3c11.9-4.8,19.8-10.4,23.7-16.9s4.3-13.4,1.4-20.7l-8.8-21.9-90.2,36.1c-2.5.9-4.2.2-5.1-2l-8.9-22.3c-.9-2.5-.2-4.1,2.2-5l112.7-45.1c2.4-.9,4.1-.2,5,2l19.1,47.8C1629.8,769.8,1630,785.1,1623.1,798.1Z"/><path class="cls-2" d="M1668.4,962.7l-20.2,2.9c-2.6.4-4-.7-4.3-3.4l-7.2-50.5c-1.2-7.8-4.9-13.6-11.2-17.4s-15.4-4.8-27.3-3.1-20.8,5.2-26.7,10.4-8.3,12-7.1,20.5l7.2,50.5q.6,3.9-3.3,4.5l-20,2.8q-3.9.6-4.5-3.3l-7.2-50.5q-4.2-29.1,10.1-46.2c9.5-11.4,24.5-18.6,45.2-21.5s37.2-.4,49.7,7.8,20.1,21.9,22.9,41.5l7.2,50.6C1672.1,960.9,1671,962.4,1668.4,962.7Z"/><path class="cls-2" d="M1158.8,351.6l-3.2,20.2c-.4,2.6-1.9,3.6-4.3,3.1l-36.1-5.7-15.2,96c-.4,2.6-1.9,3.6-4.5,3.2l-23.6-3.7c-2.5-.4-3.6-1.9-3.1-4.5l15.3-96-36.1-5.7c-2.6-.4-3.7-1.8-3.3-4.3l3.2-20.2c.4-2.6,1.9-3.6,4.5-3.2l103.3,16.3C1158.3,347.5,1159.3,349,1158.8,351.6Z"/><path class="cls-2" d="M1476.7,526.8l-33.7-29c-15.6-13.5-31.5-19.3-47.5-17.5s-33.3,13.4-51.6,34.6L1312.8,551q-2.5,3,.3,5.4l18,15.6c2.1,1.6,4,1.5,5.6-.4l12.9-15,37.2,32.1-12.8,15c-1.8,2-1.7,3.8.2,5.4l18.1,15.6c2,1.6,3.9,1.5,5.5-.4l79.3-91.9C1478.7,530.3,1478.6,528.5,1476.7,526.8Zm-71.5,40.7-37.3-32.2c11.9-13.7,22.3-21.6,31.4-23.5s17.5.5,25.4,7.3l12.7,11Z"/><path class="cls-2" d="M467.8,1137.3l-120,17.8c-2.5.4-4-.7-4.5-3.1l-3.5-23.8c-.4-2.5.7-3.9,3.3-4.3l96.1-14.3-2.4-16.4c-1.5-10.3-6.4-17.7-14.5-22.2s-21.2-5.4-39.3-2.7l-47.1,7c-2.5.3-4-.7-4.5-3.2l-3.5-23.7c-.4-2.5.7-3.9,3.3-4.3l47.2-7q41.6-6.3,61.6,7.4c13.3,9.1,21.5,24,24.6,44.5l6.5,43.9C471.5,1135.4,470.4,1136.9,467.8,1137.3Z"/><path class="cls-2" d="M1310.7,525.4l-9.4,18c-1.2,2.3-2.9,2.9-5.1,1.7l-87.9-45.6c-2.4-1.2-2.9-3-1.6-5.3l56-107.7c1.1-2.3,2.8-2.9,5.1-1.7l21.3,11c2.3,1.3,2.9,3,1.5,5.3l-44.7,86.2,63.2,32.9C1311.5,521.4,1312,523.1,1310.7,525.4Z"/><path class="cls-2" d="M1449.3,1503l-46.4,35.9c-11.3,8.8-22.7,12.3-34.1,10.4s-20.8-7.5-28.1-17-10.4-19.6-8.9-30.3,8-20.5,19.7-29.6l8-6.2c9.5-7.3,12-16.5,7.6-27.4l-57.8,44.6c-2,1.6-3.8,1.4-5.3-.8l-12.4-16c-1.6-2.1-1.4-3.9.5-5.4l81.1-62.7c2-1.6,3.8-1.3,5.5.7l5.8,7.4c24.5,31.7,21.9,58.9-7.8,81.9l-7.9,6.2c-7.2,5.5-7.9,11.9-2.3,19.2s12.1,8.3,19.2,2.7l46.4-35.8c2.1-1.7,3.8-1.4,5.3.6l12.5,16.2Q1452.3,1500.8,1449.3,1503Z"/><path class="cls-2" d="M1325.1,1591.3l-49.4,22.7c-12.9,5.9-24.2,7.9-33.9,5.9s-16.9-8.1-21.7-18.4c-5.6-12.2-5.2-22.9,1.2-32.3-14.1.7-24.4-5.9-30.9-20.1-4.8-10.2-4.7-19.7,0-28.4s13.6-15.9,26.5-21.9l55.7-25.6c2.4-1.1,4.1-.5,5.2,1.9l8.5,18.4c1.1,2.4.4,4.1-2,5.2l-55.7,25.7c-8.2,3.8-10.8,8.9-7.8,15.5s9,8.7,17.2,4.9l39.9-18.4c2.3-1.1,4-.5,4.9,1.9l8.6,18.5c1.1,2.4.5,4.1-1.8,5.2l-35,16.1c-8.2,3.8-10.7,9.1-7.5,16.1s8.6,7.9,16.8,4.3l49.4-22.7c2.4-1.1,4.1-.5,5,1.8l8.5,18.5C1327.9,1588.5,1327.3,1590.3,1325.1,1591.3Z"/><path class="cls-2" d="M1629.2,1240.3l-24.6,53.2c-6,13.1-14.5,21.4-25.4,25.1s-21.9,2.9-32.8-2.2-18.3-12.6-21.9-22.7-2.3-22,3.9-35.4l4.3-9.2q7.5-16.3-6-27.9l-30.7,66.3c-1.1,2.3-2.8,2.9-5.1,1.7l-18.4-8.5c-2.4-1.1-3.1-2.7-2-5l43-93c1.1-2.3,2.8-3,5.3-2l8.5,4q54.5,25.2,30.9,76.2l-4.3,9.2c-3.8,8.2-1.5,14.2,6.9,18.1s14.5,1.7,18.3-6.5l24.6-53.2c1.1-2.4,2.8-3,5-1.8l18.5,8.6C1629.6,1236.4,1630.3,1238.1,1629.2,1240.3Z"/><path class="cls-2" d="M1055.8,1626a62.5,62.5,0,0,1-12.8,19.3,60.2,60.2,0,0,1-19.3,13,61.4,61.4,0,0,1-47.1,0,61.9,61.9,0,0,1-19.3-13,60.1,60.1,0,0,1-17.7-42.8,59.8,59.8,0,0,1,4.7-23.5,57.6,57.6,0,0,1,13-19.3,60,60,0,0,1,19.3-12.9,57.4,57.4,0,0,1,23.6-4.9,55.8,55.8,0,0,1,23.5,5,58.1,58.1,0,0,1,19.3,12.8,61.1,61.1,0,0,1,12.8,66.3Z"/><path class="cls-2" d="M1673.1,1014.7l-2.4,23.9c-.2,2.6-1.7,3.7-4.3,3.4l-46.4-4.6-4.8,48.9,46.4,4.6c2.7.2,3.8,1.5,3.6,4.1l-2.4,23.9c-.2,2.6-1.7,3.8-4.3,3.4l-120.7-11.9c-2.6-.2-3.8-1.6-3.6-4.1l2.4-23.9c.2-2.6,1.7-3.7,4.3-3.4l46.4,4.6,4.8-49-46.4-4.5c-2.6-.3-3.8-1.7-3.6-4.1l2.4-23.9c.2-2.7,1.7-3.8,4.3-3.4l120.7,11.9C1672.1,1010.8,1673.3,1012.2,1673.1,1014.7Z"/><path class="cls-2" d="M1541.3,1376.5q-4.5-21.7-30-42.1c-.1-.1-.2-.2-.2-.3q-25.5-20.5-47.7-20.2t-42.1,25.2q-19.6,24.8-15.2,46.6c3,14.5,13.1,28.7,30.3,42.4s33.1,20.4,47.8,20,28.7-8.8,41.8-25.3S1544.3,1390.9,1541.3,1376.5Zm-37.2,28.8c-6.2,7.7-13.1,11.1-20.7,10.1s-16.4-5.4-26.3-13.3-16.2-15.5-18.9-22.8-1.1-14.9,5-22.6,13.1-10.9,20.9-9.9,16.7,5.4,26.6,13.3,16.1,15.4,18.7,22.7S1510.2,1397.6,1504.1,1405.3Z"/><path class="cls-2" d="M787.3,1505.3,737,1615.8c-1,2.4-2.7,3.1-5.1,2l-21.8-10q-3.6-1.6-1.8-5.1l50.3-110.4q1.6-3.6,5.1-2.1l21.8,10Q789.1,1501.9,787.3,1505.3Z"/><path class="cls-2" d="M691.5,1456.4l-13,15.5q-2.6,3-5.4.6l-47.2-39.8c-7.8-6.5-14-7.1-18.7-1.6s-3.6,12.2,4.2,18.8l13,10.9c12.7,10.7,19.8,21.2,21.4,31.6s-1.7,20.3-9.9,30-17.5,14.4-28.1,14.2-22-5.4-34.1-15.6l-44.4-37.5c-2-1.7-2.2-3.5-.5-5.5l13.1-15.6c1.7-2,3.5-2.1,5.5-.4l44.4,37.5c7.8,6.5,14,7,18.7,1.4s3.6-12-4.2-18.6l-13-10.9c-12.7-10.7-19.8-21.2-21.4-31.6s1.7-20.4,9.9-30,17.5-14.4,28.1-14.2,21.9,5.4,34.1,15.6l47.2,39.8Q694.2,1453.6,691.5,1456.4Z"/><path class="cls-2" d="M578.3,1362.8c-1.7,13-8.8,24.2-21.6,33.5l-62.1,45.5c-2.1,1.5-3.9,1.3-5.4-.7l-14-19.3c-1.6-2.1-1.3-3.9.8-5.5l62-45.3c5.8-4.2,8.8-9.5,9.1-15.6s-1.7-12.3-6.2-18.5-9.5-9.7-14.9-10.6-11.2.7-17.1,5L447,1376.6c-2.2,1.6-4,1.3-5.4-.7l-14.2-19.3c-1.6-2.2-1.2-4,.9-5.4l62.2-45.5c12.6-9.2,25.1-13,37.6-11.3s24.4,10.3,35.7,25.7c.1,0,.2.2.3.4Q580.8,1343.3,578.3,1362.8Z"/><path class="cls-2" d="M518.7,1257.5l-9.1-22.2c-.9-2.3-2.6-2.9-5.1-2l-39.8,16.4-7.5-18.2c-3.9-9.6-5.2-17.7-3.8-24.4s10.6-13.4,27.5-20.4l3.8-1.5c2.3-1,3-2.7,2.2-5.2l-9.1-22c-1-2.3-2.7-3-5.2-2.2l-3.8,1.6q-38.9,16.2-40.1,34.5c0,1.1,0,2.2-.1,3.4-9.8-10.6-21.8-12.9-36.2-7-11.1,4.6-18.3,11.9-21.7,21.9s-2.3,21.6,3.1,34.7l25.4,61.8c1,2.3,2.7,3,5.1,2l112.2-46.2C519,1261.6,519.7,1260,518.7,1257.5Zm-104,12.8-14.9-36.1c-3.4-8.4-1.2-14.1,6.6-17.4s14.1-.9,17.5,7.5l14.9,36.1Z"/></g></svg>