<svg xmlns="http://www.w3.org/2000/svg" viewBox="0 0 2000 2000"><defs><style>.cls-1{fill:#fff;}.cls-2{fill:none;stroke:#fff;stroke-linecap:round;stroke-linejoin:round;stroke-width:2px;}</style></defs><title>Label2</title><g id="Layer_6" data-name="Layer 6"><path class="cls-1" d="M1000,1792.4A792.6,792.6,0,0,1,691.5,269.9a792.6,792.6,0,0,1,617,1460.2A787,787,0,0,1,1000,1792.4Zm0-1580.3A785.8,785.8,0,1,0,1306.7,274,783.2,783.2,0,0,0,1000,212.1Z"/><path class="cls-2" d="M978.2,954.3c20.4,8.6,44.1-1.5,52.2-19.2a.3.3,0,0,0,.1-.2v-.2a.4.4,0,0,0,.1-.3c.1,0,.1-.1.1-.2s.1-.1.1-.2.1-.1.1-.2.1-.1.1-.2.1-.1.1-.2v-.2a1475149645054.5,1475149645054.5,0,0,0,.3-.6c0-.1.1-.2.1-.3a327811032234.4,327811032234.4,0,0,1,.2-.4v-.2c0-.1.1-.1.1-.2s.1-.1.1-.2.1-.1.1-.2a327811032234.6,327811032234.6,0,0,0,.2-.4.3.3,0,0,1,.1-.2c0-.1.1-.2.1-.3a245858274175.9,245858274175.9,0,0,1,.2-.4.3.3,0,0,0,.1-.2c0-.1.1-.1.1-.2s.1-.1.1-.2.1-.1.1-.2a.3.3,0,0,1,.1-.2v-.2a.3.3,0,0,1,.1-.2c0-.1.1-.2.1-.3a.3.3,0,0,0,.1-.2v-.2a.3.3,0,0,1,.1-.2c0-.1,0-.1.1-.2v-.2c0-.1,0-.1.1-.2s0-.2.1-.2,0-.2.1-.2,0-.2.1-.2a.4.4,0,0,1,.1-.3.3.3,0,0,1,.1-.2v-.2a.3.3,0,0,1,.1-.2c0-.1,0-.1.1-.2s0-.1.1-.2,0-.1.1-.2,0-.2.1-.2,0-.2.1-.2,0-.2.1-.2a.4.4,0,0,1,.1-.3,614645685391.2,614645685391.2,0,0,0,.3-.6v-.6a245858274175.9,245858274175.9,0,0,1,.2-.4.3.3,0,0,0,.1-.2.4.4,0,0,0,.1-.3c.1,0,.1-.1.1-.2s.1-.1.1-.2.1-.1.1-.2.1-.1.1-.2.1-.1.1-.2.1-.1.1-.2a.3.3,0,0,0,.1-.2v-.2a.4.4,0,0,0,.1-.3c.1,0,.1-.1.1-.2s.1-.1.1-.2.1-.1.1-.2.1-.1.1-.2.1-.1.1-.2v-.2a245858274175.9,245858274175.9,0,0,0,.2-.4v-.2c0-.1.1-.2.1-.3a327811032234.6,327811032234.6,0,0,1,.2-.4v-.2c0-.1.1-.1.1-.2s.1-.1.1-.2.1-.1.1-.2a327811032234.5,327811032234.5,0,0,0,.2-.4.3.3,0,0,1,.1-.2c0-.1.1-.2.1-.3a245858274176,245858274176,0,0,1,.2-.4.3.3,0,0,0,.1-.2c0-.1.1-.1.1-.2s.1-.1.1-.2.1-.1.1-.2a.3.3,0,0,1,.1-.2v-.2a42.6,42.6,0,0,0,4-17.8c.6-16.7-7.7-29.7-18.5-40.7q-75-76.5-151.3-151.6c-18.4-18.1-44-17.9-65.6-1.7-19,14.3-26.3,40.1-14.8,61.4,6,11.3,2.6,17-5.2,24.6q-67.4,66.6-134.4,134C627,950,610.4,982,617.7,1022.6c4.8,27.1,18.4,49.5,37.4,68.9q63.4,65.3,127.8,129.6c11.2,11.1,23.4,21.3,38.2,27.7,21.9,9.2,42,5,55.8-14.2a49.6,49.6,0,0,0,4.6-7.6l.3-.6.3-.5.3-.6.3-.5.3-.6.3-.5a1.4,1.4,0,0,1,.2-.6l.3-.6.3-.5.3-.6.3-.5.3-.6.3-.5.3-.6.3-.5c0-.2.2-.4.2-.6l.3-.5.3-.6.3-.6.3-.5.3-.6.3-.5.3-.6.3-.5.3-.6c0-.2.1-.3.2-.5l.3-.6.3-.5.3-.6.3-.6.3-.5.3-.6.3-.5.3-.6c0-.2.2-.3.2-.5l.3-.6.3-.5.3-.6.3-.5.3-.6.3-.6.3-.5.3-.6a.8.8,0,0,0,.2-.5l.3-.6.3-.5.3-.6.3-.5.3-.6.3-.5.3-.6.3-.6.3-.5c0-.2.2-.4.2-.6l.3-.5.3-.6.3-.5.3-.6.3-.5.3-.6.3-.5.3-.6a1.4,1.4,0,0,0,.2-.6l.3-.5.3-.6.3-.5.3-.6.3-.5.3-.6.3-.5.3-.6.3-.5c0-.2.2-.4.2-.6l.3-.6.3-.5.3-.6.3-.5.3-.6.3-.5.3-.6.3-.5a1.4,1.4,0,0,0,.2-.6l.3-.5.3-.6.3-.6.3-.5.3-.6.3-.5.3-.6.3-.5.3-.6c0-.2.2-.4.2-.5l.3-.6.3-.5.3-.6.3-.6.3-.5.3-.6.3-.5.3-.6c7-13.8,5.7-30.9-4.9-41.5-33.4-33.5-66.9-66.9-100.8-99.6-17.9-17.3-19-35-1.2-52.8,29.1-29.4,58.6-58.6,87.6-88.1,5.8-5.9,9.9-6.5,15.9-.2,16.2,16.9,33,33.2,49.5,49.9C962.9,945.5,970,950.9,978.2,954.3Z"/><path class="cls-2" d="M1383.9,992.4c1.1-31.9-12.1-57-32.6-78-47-48.2-94.9-95.4-142.5-143-10.3-10.2-22-18.2-35.8-22.8-21.4-7.2-40.6-.5-52.6,19.4-.8,1.3-1.5,2.7-2.2,4l-.3.5a1.4,1.4,0,0,0-.2.6l-.3.6-.3.5-.3.6-.3.5-.3.6-.3.5-.3.6-.3.6a.8.8,0,0,0-.2.5l-.3.6-.3.5-.3.6-.3.5-.3.6-.3.6-.3.5-.3.6c-.1.2-.2.3-.2.5l-.3.6-.3.5-.3.6-.3.6-.3.5-.3.6-.3.5-.3.6a1.7,1.7,0,0,0-.2.5l-.3.6-.3.6-.3.5-.3.6-.3.5-.3.6-.3.5-.3.6a1.4,1.4,0,0,0-.2.6l-.3.5-.3.6-.3.5-.3.6-.3.5-.3.6-.3.6-.3.5a1.4,1.4,0,0,0-.2.6l-.3.5-.3.6-.3.5-.3.6-.3.6-.3.5-.3.6-.3.5a1.4,1.4,0,0,0-.2.6l-.3.5-.3.6-.3.6-.3.5-.3.6-.3.5-.3.6-.3.5a1.4,1.4,0,0,0-.2.6l-.3.6-.3.5-.3.6-.3.5-.3.6-.3.5-.3.6-.3.6a.8.8,0,0,0-.2.5l-.3.6-.3.5-.3.6-.3.5-.3.6-.3.6-.3.5-.3.6c-.1.2-.2.3-.2.5l-.3.6-.3.5-.3.6-.3.6-.3.5-.3.6-.3.5-.3.6a1.7,1.7,0,0,0-.2.5l-.3.6-.3.6-.3.5-.3.6-.3.5-.3.6-.3.5-.3.6c-7.4,14.5-4.8,31.9,7.2,44,33.1,33.1,66.4,66,99.6,99.2,17.8,17.8,18.3,30.6.8,48.4-29.6,30.2-59.8,59.7-89.4,89.8-5.6,5.6-9.6,5.9-15.2.1-15.5-16-31.4-31.6-47.2-47.4-7.6-7.6-16.2-14.1-26.6-17.8-18.1-6.4-36.1.1-48.1,17.4a30,30,0,0,0-2.6,4.6c0,.1-.1.1-.1.2v.4c0,.1-.1.2-.1.3v.6c-.1.1-.1.1-.1.2a.3.3,0,0,0-.1.2v.2a.4.4,0,0,0-.1.3c-.1,0-.1.1-.1.2s-.1.1-.1.2l-.2.2v.2c0,.1,0,.2-.1.2s0,.2-.1.2,0,.2-.1.2a.4.4,0,0,1-.1.3.3.3,0,0,1-.1.2v.2c0,.1-.1.1-.1.2s-.1.1-.1.2v.2a.3.3,0,0,1-.1.2c0,.1-.1.2-.1.3v.4c0,.1-.1.1-.1.2s-.1.1-.1.2v.4a.4.4,0,0,0-.1.3c-.1,0-.1.1-.1.2s-.1.1-.1.2-.1.1-.1.2l-.2.2c0,.1,0,.2-.1.2s0,.2-.1.2a.4.4,0,0,1-.1.3.3.3,0,0,1-.1.2.3.3,0,0,1-.1.2v.6a.3.3,0,0,1-.1.2c0,.1-.1.2-.1.3v.4a.3.3,0,0,0-.1.2c0,.1-.1.1-.1.2v.2a.3.3,0,0,1-.1.2v.2a.4.4,0,0,0-.1.3c-.1,0-.1.1-.1.2s-.1.1-.1.2-.1.1-.1.2v.2c-.1.1-.1.2-.2.2s0,.2-.1.2a.4.4,0,0,1-.1.3.3.3,0,0,1-.1.2v.6c0,.1,0,.2-.1.2a.3.3,0,0,1-.1.2v.5a.3.3,0,0,0-.1.2c0,.1-.1.1-.1.2v.2a.3.3,0,0,1-.1.2.3.3,0,0,1-.1.2v.2a.4.4,0,0,0-.1.3c-.1,0-.1.1-.1.2s-.1.1-.1.2v.6c-.1.1-.1.2-.2.2a.4.4,0,0,1-.1.3v.6c0,.1,0,.1-.1.2s0,.2-.1.2,0,.2-.1.2v.3a491716548352.1,491716548352.1,0,0,1-.2.4v.2c0,.1-.1.1-.1.2a.3.3,0,0,1-.1.2v.5a.3.3,0,0,0-.1.2c-.1,0-.1.1-.1.2-6.7,14.6-3.2,32.4,10.1,49.2a131.3,131.3,0,0,0,12.3,13.5q70,70.8,140,141.2c19.9,20,46,24,66.6,10.4,24.2-15.9,31.2-40,18.2-68-4.9-10.2-1.2-15.7,5.6-22.3q69-68.4,137.4-137.5C1370.2,1051.2,1385.5,1024.7,1383.9,992.4Z"/><path class="cls-1" d="M892.7,722.1H793a31.7,31.7,0,0,1,2.1-4.1h93.5Z"/><path class="cls-1" d="M920.7,749.9a52.9,52.9,0,0,1,4.1,4.1H790.2a33.8,33.8,0,0,1-.9-4.1Z"/><path class="cls-1" d="M1185.5,754h-52.8a37.3,37.3,0,0,1,6.5-4.1h37.3A60.7,60.7,0,0,1,1185.5,754Z"/><path class="cls-1" d="M952.7,781.7c1.4,1.4,2.7,2.8,4.1,4.1H791.3a24.6,24.6,0,0,0,3.4-4.1Z"/><path class="cls-1" d="M1223.2,785.8H1111l.3-.4.3-.6.3-.5c.1-.3.2-.4.2-.6a.9.9,0,0,0,.3-.6,1.3,1.3,0,0,0,.3-.5l.3-.6.2-.3h105.9Z"/><path class="cls-1" d="M984.4,813.6l4.1,4.1H759.2l4.2-4.1Z"/><path class="cls-1" d="M1255.2,817.7H1094.5l.3-.6.3-.5.3-.6.3-.6.3-.5.3-.6c.1-.2.2-.3.2-.5a.3.3,0,0,0,.1-.2h154.5C1252.5,815,1253.8,816.4,1255.2,817.7Z"/><path class="cls-1" d="M1015.8,845.5c1.4,1.4,2.8,2.7,4.1,4.1H727.1l4.2-4.1Z"/><path class="cls-1" d="M1287.2,849.6H1085.5a28.3,28.3,0,0,1-.3-4.1h197.9Z"/><path class="cls-1" d="M1040.9,877.4a28.6,28.6,0,0,1,1.5,4.1H695.2l4.1-4.1Z"/><path class="cls-1" d="M1318.9,881.5H1106.3l-4.1-4.1h212.6C1316.2,878.7,1317.6,880.1,1318.9,881.5Z"/><path class="cls-1" d="M667.5,909.2H871.7l-4,4.2H663.4Z"/><path class="cls-1" d="M1042.2,909.2c-.5,1.4-1,2.8-1.6,4.2H930.8l-4.1-4.2Z"/><path class="cls-1" d="M1350.3,913.4h-212l-4.1-4.2h212.1Z"/><path class="cls-1" d="M638.2,941.1H839.9c-1.3,1.4-2.7,2.8-4.1,4.1H635.2C636.1,943.9,637.1,942.5,638.2,941.1Z"/><path class="cls-1" d="M1026.8,941.1a35.8,35.8,0,0,1-3.5,4.1h-60a44.5,44.5,0,0,1-4.7-4.1Z"/><path class="cls-1" d="M1373.8,945.2H1170.3c-1.3-1.4-2.7-2.7-4.1-4.1h205.4Z"/><path class="cls-1" d="M621,973H808.1l-4.1,4.1H619.7C620.1,975.7,620.5,974.4,621,973Z"/><path class="cls-1" d="M1383.3,977.1H1201.8c-1.1-1.3-2.3-2.7-3.7-4.1h184.6C1382.9,974.4,1383.2,975.7,1383.3,977.1Z"/><path class="cls-1" d="M790.9,1004.9a19.9,19.9,0,0,0,.5,4.1H616.1c-.1-1.4-.1-2.8-.1-4.1Z"/><path class="cls-1" d="M1383.7,1004.9c-.1,1.3-.3,2.7-.5,4.1H1205.4c.8-1.4,1.6-2.8,2.2-4.1Z"/><path class="cls-1" d="M811.4,1036.8l4.2,4.1H622.5c-.5-1.4-.9-2.7-1.3-4.1Z"/><path class="cls-1" d="M1374.8,1036.8a39.8,39.8,0,0,1-2.1,4.1H1175.5l4.1-4.1Z"/><path class="cls-1" d="M844,1068.7l4.2,4.1H639.3l-2.9-4.1Z"/><path class="cls-1" d="M1052,1068.7l4.1,4.1H964.5v-.4c0-.1,0-.1.1-.2a.3.3,0,0,1,.1-.2c0-.1,0-.2.1-.2v-.2a.4.4,0,0,1,.1-.3.3.3,0,0,0,.1-.2c.1,0,.1-.1.1-.2v-.2c.1,0,.1-.1.1-.2s.1-.1.1-.2a.3.3,0,0,0,.1-.2c0-.1.1-.2.1-.3s.1-.1.2-.2v-.2l.2-.2v-.2c.1-.1.1-.2.2-.2H1052Z"/><path class="cls-1" d="M1352.7,1068.7l-3.9,4.1H1143.6c1.4-1.4,2.7-2.8,4.1-4.1Z"/><path class="cls-1" d="M876.1,1100.5l4.2,4.1H668c-1.4-1.3-2.7-2.7-4-4.1Z"/><path class="cls-1" d="M1083.8,1100.5l4.1,4.1H954.1v-4.1Z"/><path class="cls-1" d="M1321.2,1100.5c-1.3,1.4-2.7,2.8-4.1,4.1H1111.9l4.1-4.1Z"/><path class="cls-1" d="M907.7,1132.4a27.1,27.1,0,0,1,2.8,4.1H699.2c-1.4-1.3-2.7-2.7-4-4.1Z"/><path class="cls-1" d="M1289.4,1132.4c-1.3,1.4-2.7,2.8-4.1,4.1H967.4l-3-4.1Z"/><path class="cls-1" d="M726.6,1164.3H913.3c-.4,1.4-.9,2.8-1.4,4.1H730.6C729.2,1167.1,727.9,1165.7,726.6,1164.3Z"/><path class="cls-1" d="M1257.5,1164.3l-4.1,4.1H997.9l-4.1-4.1Z"/><path class="cls-1" d="M758.1,1196.2H897.5a.4.4,0,0,1-.1.3,1.3,1.3,0,0,1-.3.5c-.1.2-.1.4-.3.6s-.1.3-.2.6l-.3.5-.3.6-.3.5-.3.5H762.2C760.8,1199,759.5,1197.6,758.1,1196.2Z"/><path class="cls-1" d="M1225.4,1196.2c-1.4,1.4-2.7,2.8-4.1,4.1H1029.5c-1.4-1.3-2.7-2.7-4-4.1Z"/><path class="cls-1" d="M790.2,1228.1H881l-2.4,4.1H794.9Z"/><path class="cls-1" d="M1203.9,1232.2H1061.1l-4.1-4.1h145.7A20.3,20.3,0,0,0,1203.9,1232.2Z"/><path class="cls-1" d="M1211,1260c0,1.4,0,2.7-.1,4.1H1092.7c-1.4-1.4-2.7-2.8-4.1-4.1Z"/><path class="cls-1" d="M1198.2,1291.9a54.4,54.4,0,0,1-4.2,4.1h-69.2l-4.5-4.1Z"/><path class="cls-1" d="M1383.9,992.4c1.1-31.9-12.1-57-32.6-78-46.9-48.2-94.9-95.4-142.5-143-10.3-10.2-22-18.2-35.8-22.8-21.4-7.2-40.6-.5-52.6,19.4s-9.2,44.8,7.7,61.7c44,44,88.2,87.7,132.2,131.6,23.6,23.7,24.3,40.8,1.1,64.3-39.3,40-79.4,79.3-118.8,119.2-7.4,7.5-12.7,7.9-20.1.1-20.6-21.2-41.7-41.9-62.6-62.9-10.2-10.1-21.6-18.7-35.3-23.5-24.1-8.6-47.9.1-63.9,23-10.8,15.5-8.3,35.9,6.8,55.1a131.3,131.3,0,0,0,12.3,13.5q70,70.8,140,141.2c19.9,20,46,24,66.6,10.4,24.2-15.9,31.2-40,18.2-68-4.9-10.2-1.2-15.7,5.6-22.3q69-68.4,137.4-137.5C1370.2,1051.2,1385.5,1024.7,1383.9,992.4Z"/><path class="cls-1" d="M1044.3,896.3c.6-16.7-7.7-29.7-18.5-40.7q-75-76.5-151.3-151.6c-18.4-18.1-44-17.9-65.6-1.7-19,14.3-26.3,40.1-14.8,61.4,6,11.3,2.6,17-5.2,24.6q-67.4,66.6-134.4,134C627,950,610.4,982,617.7,1022.6c4.8,27.1,18.4,49.5,37.4,68.9q63.4,65.3,127.8,129.6c11.2,11.1,23.4,21.3,38.2,27.7,21.9,9.2,42,5,55.8-14.2s13.7-46.1-2.2-62c-44.3-44.5-88.7-88.8-133.9-132.3-23.6-22.9-25.1-46.3-1.5-70,38.7-39,77.7-77.8,116.3-116.9,7.7-7.9,13.1-8.8,21.1-.3,21.6,22.4,43.8,44,65.8,66.2,8.3,8.4,17.7,15.5,28.6,20C1004.4,953.3,1044.2,929.9,1044.3,896.3Z"/><path class="cls-1" d="M758.5,511.9l-20.4,12.7c-2.3,1.3-4,.8-5.3-1.4l-31.6-50.9c-6.8-10.9-13.7-17.7-20.7-20.3s-13.9-2-20.6,2.2l-20.1,12.5,51.3,82.5c1.3,2.3.9,4.1-1.2,5.3l-20.3,12.7c-2.3,1.3-4.1.8-5.3-1.4l-64-103c-1.3-2.3-1-4.1,1.1-5.4L645,430.3c16.3-10.1,31.3-12.9,45.3-8.4s26.5,15.8,37.7,33.7l31.6,51C761,508.8,760.6,510.6,758.5,511.9Z"/><path class="cls-1" d="M590.2,617.6q-3.6-21.9-28.1-41.4t-46.8-18.4Q493,559,474.5,582.2l-34,42.8c-1.6,2-1.3,3.8.8,5.4l95,75.4c2,1.8,3.8,1.6,5.4-.5l34-42.8Q594,639.6,590.2,617.6ZM553.7,645,537,666.1l-57.2-45.4,16.7-21a23.3,23.3,0,0,1,18.3-9.4q11.1-.1,25.2,11.1c9.4,7.4,15.4,14.9,17.9,22.3S559.1,638.2,553.7,645Z"/><path class="cls-1" d="M879.5,468.9l-97.3,32.2c-2.5.8-4.1-.1-4.8-2.6L739.3,383.3c-.8-2.5,0-4.1,2.4-4.9l95.6-31.6c2.5-.9,4.2,0,5,2.5l6.4,19.3c.9,2.5,0,4.1-2.5,4.8l-69.4,22.9,7.1,21.4,64.3-21.3c2.5-.8,4.1,0,5,2.5l6.3,19.4c.9,2.5,0,4.1-2.5,4.8l-64.3,21.2,7.1,21.4,70.9-23.5c2.5-.8,4.2,0,5,2.5l6.3,19.2C882.8,466.4,882,468.1,879.5,468.9Z"/><path class="cls-1" d="M458.3,976l-.6,24c0,2.6-1.4,3.9-4,3.7l-121.3-2.9c-2.6.1-3.9-1.2-3.9-3.8l.6-24c.1-2.6,1.4-3.9,4-3.7l121.3,2.9C457.1,972.2,458.3,973.5,458.3,976Z"/><path class="cls-1" d="M1016.6,450.9c.1,2.7-1.2,4.1-3.7,4.3L989.2,457c-2.6.1-4.1-1.1-4.3-3.6l-.3-4.1q-2.1-27.3-11.1-34.2c-5.1-3.9-11.8-5.9-20-5.8s-14.7,4.2-19.1,8.9-7.1,17.2-5.6,35.5l.3,4.1c.2,2.5-1,3.9-3.7,4.2l-23.7,1.9c-2.5.2-3.9-1-4.2-3.7l-.4-4.1c-2.1-28,2-45.7,12.6-53a54.8,54.8,0,0,1,11-6q-25.5-11.7-28.8-54l-.3-4.1c-.2-2.6,1-4,3.5-4.2l23.9-1.9c2.6-.2,4,1,4.1,3.6l.3,4.1c1.5,19.4,4.2,31,8.2,34.9s10.5,5.7,19.7,5.4,15.2-4,18.5-8.4,4.1-16.3,2.6-35.7l-.3-4.1c-.2-2.6.9-4,3.4-4.2l24-1.9c2.6-.2,3.9,1,4,3.7l.3,4.1c2.2,28.2-4.4,47.5-20,57.7a45.7,45.7,0,0,1,11.8,4.3c11.5,5.6,18.3,22.4,20.6,50.4Z"/><path class="cls-1" d="M466.6,903.6,458,947.1c-.4,2.5-2,3.5-4.6,3l-119-23.3c-2.5-.5-3.6-2-3.2-4.5l4.6-23.5c.5-2.5,2-3.5,4.6-3l95.4,18.7,3.2-16.3c2-10.2-.1-18.8-6.2-25.8s-18.2-12.2-36.2-15.7l-46.7-9.2c-2.5-.4-3.5-1.9-3.2-4.4l4.6-23.6c.5-2.4,2.1-3.4,4.6-2.9l46.8,9.2c27.5,5.3,46,14.6,55.5,27.6S470.6,883.2,466.6,903.6Z"/><path class="cls-1" d="M528.7,727l-42.6,93.2q-1.7,3.6-5.1,1.8L370.6,771.6c-2.4-1.1-3.1-2.8-2-5.1l41.9-91.7c1.1-2.3,2.8-3,5.2-1.9l18.6,8.5c2.3,1.1,2.9,2.8,1.7,5.1l-30.3,66.4,20.4,9.4,28.2-61.6c1-2.4,2.8-3,5.2-1.9l18.5,8.4c2.4,1.1,3,2.9,1.8,5.2L451.7,774l20.4,9.3,31.1-68c1.1-2.4,2.8-3,5.2-1.9l18.4,8.4C529.2,722.9,529.8,724.6,528.7,727Z"/><path class="cls-1" d="M1575.5,657.7l-62.6,44.7q-19.2,13.6-37.8,10.8t-35.4-26c0-.1-.2-.2-.3-.4-10.9-15.4-15.5-29.5-13.7-42.5s9.1-24.1,21.9-33.3l62.7-44.7c2.1-1.5,3.9-1.3,5.4.8l13.8,19.4c1.5,2.1,1.2,3.9-.9,5.5l-62.5,44.6c-5.8,4.2-9,9.3-9.3,15.5s1.6,12.3,6,18.5,9.4,9.8,14.8,10.8,11.1-.6,17.1-4.8l62.5-44.6c2.1-1.5,3.9-1.3,5.4.8l13.9,19.5C1578.1,654.4,1577.7,656.2,1575.5,657.7Z"/><path class="cls-1" d="M1623.3,796c-6.8,13-20.1,23.4-39.7,31.3l-55.7,22.3c-2.4,1-4.1.3-5-2.1l-9-22.2c-.8-2.5-.1-4.2,2.3-5l55.7-22.3c11.9-4.8,19.7-10.4,23.6-16.9s4.3-13.3,1.4-20.6l-8.8-22-90.2,36.1c-2.5.9-4.2.2-5.1-2l-8.9-22.3c-.9-2.4-.1-4.1,2.3-4.9l112.6-45.2c2.5-.8,4.2-.2,5.1,2.1L1623,750Q1633.6,776.6,1623.3,796Z"/><path class="cls-1" d="M1668.6,960.7l-20.2,2.9c-2.6.3-4-.8-4.3-3.4l-7.2-50.6c-1.1-7.8-4.8-13.6-11.1-17.3s-15.5-4.8-27.3-3.1-20.8,5.1-26.8,10.3-8.3,12-7.1,20.5l7.3,50.6c.4,2.6-.8,4-3.4,4.4l-20,2.9c-2.6.4-4.1-.8-4.4-3.4l-7.3-50.5c-2.8-19.4.6-34.7,10.1-46.1s24.6-18.6,45.2-21.6,37.2-.4,49.7,7.8,20.1,22,22.9,41.5l7.3,50.6C1672.3,958.8,1671.2,960.3,1668.6,960.7Z"/><path class="cls-1" d="M1159,349.6l-3.2,20.1c-.4,2.6-1.8,3.6-4.3,3.1l-36.1-5.7-15.2,96q-.6,3.9-4.5,3.3l-23.5-3.8c-2.6-.4-3.6-1.9-3.1-4.5l15.2-95.9-36.1-5.7c-2.6-.5-3.6-1.9-3.3-4.4l3.2-20.1c.5-2.6,2-3.7,4.6-3.3l103.2,16.4C1158.5,345.5,1159.5,347,1159,349.6Z"/><path class="cls-1" d="M1476.9,524.7l-33.6-28.9c-15.7-13.6-31.5-19.4-47.6-17.5s-33.3,13.3-51.5,34.5l-31.1,36.1c-1.8,2-1.7,3.8.2,5.4l18.1,15.6c2,1.6,3.9,1.5,5.5-.4l12.9-14.9,37.3,32.1-12.9,14.9c-1.7,2-1.6,3.8.3,5.5l18,15.5c2.1,1.6,3.9,1.5,5.6-.4l79.2-91.9C1478.9,528.2,1478.8,526.4,1476.9,524.7Zm-71.5,40.7-37.2-32.1c11.8-13.8,22.3-21.6,31.3-23.6s17.5.6,25.4,7.3l12.7,11Z"/><path class="cls-1" d="M468,1135.2,348,1153c-2.5.4-4-.6-4.5-3.1l-3.5-23.7c-.4-2.5.8-4,3.3-4.4l96.2-14.2-2.5-16.5c-1.5-10.3-6.3-17.7-14.5-22.2s-21.2-5.4-39.3-2.7l-47.1,7c-2.5.4-4-.7-4.4-3.1l-3.6-23.8c-.4-2.5.8-3.9,3.4-4.3l47.1-7q41.5-6.1,61.6,7.5t24.6,44.5l6.6,43.9C471.7,1133.3,470.6,1134.8,468,1135.2Z"/><path class="cls-1" d="M1310.9,523.3l-9.3,18c-1.3,2.3-3,2.9-5.2,1.8l-87.9-45.7c-2.3-1.2-2.8-3-1.5-5.3l55.9-107.6c1.1-2.4,2.8-3,5.2-1.8l21.2,11.1c2.4,1.2,2.9,2.9,1.6,5.2l-44.8,86.2,63.3,32.9C1311.7,519.3,1312.2,521.1,1310.9,523.3Z"/><path class="cls-1" d="M1449.5,1500.9l-46.3,35.9q-17.1,13.2-34.2,10.5c-11.4-1.8-20.7-7.5-28.1-17s-10.3-19.7-8.9-30.3,8-20.6,19.8-29.6l8-6.2c9.5-7.4,12-16.5,7.5-27.5l-57.7,44.6c-2.1,1.7-3.9,1.4-5.4-.8l-12.4-16q-2.4-3,.6-5.4l81-62.7c2-1.5,3.9-1.3,5.6.7l5.7,7.5q36.8,47.4-7.7,81.8l-8,6.2c-7.2,5.5-7.9,11.9-2.2,19.3s12,8.2,19.2,2.7l46.3-35.9c2.1-1.6,3.9-1.4,5.3.7l12.5,16.1Q1452.5,1498.6,1449.5,1500.9Z"/><path class="cls-1" d="M1325.3,1589.2l-49.4,22.7c-12.8,6-24.1,7.9-33.9,5.9s-16.9-8.1-21.6-18.4c-5.6-12.1-5.2-22.9,1.2-32.2-14.2.7-24.5-6-31-20.1-4.7-10.3-4.7-19.8.1-28.4s13.5-16,26.4-21.9l55.7-25.7c2.4-1.1,4.2-.4,5.3,2l8.4,18.3c1.1,2.4.5,4.2-1.9,5.3l-55.8,25.6c-8.2,3.8-10.8,8.9-7.7,15.5s8.9,8.7,17.1,4.9l39.9-18.3c2.4-1.1,4-.5,5,1.8l8.5,18.5c1.1,2.4.5,4.1-1.8,5.2l-35,16.1c-8.2,3.8-10.7,9.1-7.5,16.1s8.6,8,16.9,4.3l49.3-22.7c2.4-1.1,4.1-.5,5,1.8l8.6,18.6Q1328.8,1587.7,1325.3,1589.2Z"/><path class="cls-1" d="M1629.5,1238.3l-24.6,53.2c-6.1,13-14.6,21.4-25.5,25s-21.9,2.9-32.8-2.1-18.2-12.7-21.9-22.8-2.3-21.9,3.9-35.4l4.3-9.2q7.5-16.4-6-27.9l-30.7,66.3c-1,2.4-2.8,3-5.1,1.8l-18.4-8.5c-2.4-1.1-3-2.8-2-5.1l43.1-93c1-2.3,2.8-2.9,5.2-1.9l8.6,3.9q54.3,25.2,30.8,76.2l-4.3,9.2c-3.7,8.2-1.4,14.2,7,18.1s14.5,1.7,18.2-6.4l24.7-53.2c1.1-2.4,2.7-3,5-1.9l18.5,8.6C1629.9,1234.3,1630.5,1236,1629.5,1238.3Z"/><path class="cls-1" d="M1056,1623.9a60.8,60.8,0,0,1-12.8,19.3,57.6,57.6,0,0,1-19.3,13,58.8,58.8,0,0,1-23.5,4.8,58.1,58.1,0,0,1-23.5-4.8,60.8,60.8,0,0,1-32.3-32.3,58.1,58.1,0,0,1-4.8-23.5,58.8,58.8,0,0,1,4.8-23.5,54.8,54.8,0,0,1,13-19.3,57.6,57.6,0,0,1,19.3-12.8,55,55,0,0,1,23.5-4.9,55.7,55.7,0,0,1,23.5,4.9,57.6,57.6,0,0,1,19.3,12.8,59.2,59.2,0,0,1,12.8,19.3A60.8,60.8,0,0,1,1056,1623.9Z"/><path class="cls-1" d="M1673.3,1012.6l-2.3,23.9c-.3,2.6-1.7,3.7-4.3,3.4l-46.4-4.6-4.8,49,46.4,4.5c2.6.2,3.8,1.6,3.5,4.2l-2.3,23.8c-.3,2.7-1.7,3.8-4.3,3.4L1538,1108.3c-2.6-.2-3.8-1.6-3.6-4.1l2.4-23.9c.3-2.6,1.7-3.7,4.3-3.3l46.4,4.5,4.8-48.9-46.4-4.6c-2.6-.2-3.8-1.6-3.5-4.1l2.3-23.9c.2-2.6,1.7-3.7,4.3-3.4l120.8,11.9C1672.4,1008.8,1673.5,1010.1,1673.3,1012.6Z"/><path class="cls-1" d="M1541.5,1374.4q-4.4-21.6-30-42.1c-.1,0-.1-.2-.2-.3q-25.3-20.6-47.7-20.1t-42,25.2c-13.2,16.4-18.2,31.9-15.3,46.5s13.1,28.7,30.3,42.4,33.1,20.4,47.9,20,28.6-8.8,41.7-25.2S1544.5,1388.8,1541.5,1374.4Zm-37.2,28.8c-6.2,7.7-13.1,11.1-20.7,10.1s-16.4-5.4-26.3-13.2-16.1-15.5-18.9-22.9-1-14.9,5.1-22.5,13-11,20.9-10,16.7,5.4,26.5,13.3,16.1,15.5,18.7,22.7S1510.4,1395.5,1504.3,1403.2Z"/><path class="cls-1" d="M787.6,1503.3l-50.4,110.4c-.9,2.4-2.6,3.1-5,2l-21.9-10c-2.4-1-3-2.8-1.7-5.1l50.3-110.4c1.1-2.4,2.8-3.1,5-2l21.9,9.9C788.2,1499.2,788.8,1500.9,787.6,1503.3Z"/><path class="cls-1" d="M691.8,1454.3l-13.1,15.5q-2.6,3-5.4.6l-47.2-39.8q-11.7-9.7-18.6-1.5c-5,5.9-3.6,12.2,4.1,18.7l13,10.9c12.7,10.7,19.8,21.2,21.4,31.6s-1.7,20.4-9.9,30-17.4,14.4-28,14.2-22-5.4-34.2-15.6l-44.4-37.4c-2-1.7-2.2-3.6-.5-5.6l13.2-15.6q2.5-3,5.4-.3l44.4,37.4c7.8,6.6,14.1,7,18.8,1.4s3.5-12-4.3-18.6l-13-10.9c-12.6-10.7-19.8-21.2-21.3-31.6s1.7-20.3,9.8-30,17.5-14.4,28.1-14.2,22,5.4,34.1,15.6l47.2,39.8C693.4,1450.6,693.5,1452.4,691.8,1454.3Z"/><path class="cls-1" d="M578.5,1360.7c-1.6,13.1-8.8,24.3-21.5,33.6l-62.1,45.4c-2.2,1.6-4,1.3-5.4-.7l-14.1-19.2c-1.6-2.2-1.3-4,.8-5.5l62-45.4c5.8-4.2,8.9-9.4,9.2-15.6s-1.8-12.3-6.3-18.5-9.4-9.6-14.9-10.6-11.1.7-17,5l-62,45.4c-2.1,1.5-3.9,1.3-5.4-.8l-14.2-19.3c-1.5-2.1-1.2-3.9,1-5.4l62.1-45.4c12.6-9.3,25.2-13,37.7-11.4s24.3,10.3,35.6,25.7l.3.4C575.4,1333.6,580.2,1347.7,578.5,1360.7Z"/><path class="cls-1" d="M519,1255.5l-9.2-22.2c-.9-2.4-2.6-3-5-2L465,1247.7l-7.5-18.3c-4-9.6-5.3-17.7-3.8-24.3s10.5-13.5,27.4-20.4l3.8-1.6c2.4-1,3.1-2.7,2.2-5.2l-9.1-22c-.9-2.3-2.7-3-5.1-2.1l-3.8,1.5q-39,16.2-40.1,34.5c-.1,1.1-.1,2.3-.1,3.4q-14.7-15.9-36.3-7c-11,4.6-18.3,11.9-21.6,21.9s-2.3,21.6,3,34.7l25.5,61.8c.9,2.3,2.6,3,5,2l112.3-46.2C519.2,1259.5,520,1257.9,519,1255.5Zm-104.1,12.7L400,1232.1c-3.4-8.3-1.2-14.1,6.6-17.3s14.1-.9,17.5,7.4l14.9,36.1Z"/></g></svg>